<?xml version="1.0" encoding="UTF-8" standalone="no"?>
<!-- Created with Inkscape (http://www.inkscape.org/) -->

<svg
   xmlns:dc="http://purl.org/dc/elements/1.1/"
   xmlns:cc="http://creativecommons.org/ns#"
   xmlns:rdf="http://www.w3.org/1999/02/22-rdf-syntax-ns#"
   xmlns:svg="http://www.w3.org/2000/svg"
   xmlns="http://www.w3.org/2000/svg"
   xmlns:sodipodi="http://sodipodi.sourceforge.net/DTD/sodipodi-0.dtd"
   xmlns:inkscape="http://www.inkscape.org/namespaces/inkscape"
   version="1.1"
   id="svg815"
   width="210mm"
   height="210mm"
   viewBox="0 0 793.70079 793.7008"
   sodipodi:docname="logoAJI.svg"
   inkscape:version="0.92.4 (5da689c313, 2019-01-14)">
  <metadata
     id="metadata821">
    <rdf:RDF>
      <cc:Work
         rdf:about="">
        <dc:format>image/svg+xml</dc:format>
        <dc:type
           rdf:resource="http://purl.org/dc/dcmitype/StillImage" />
        <dc:title></dc:title>
      </cc:Work>
    </rdf:RDF>
  </metadata>
  <defs
     id="defs819" />
  <sodipodi:namedview
     pagecolor="#ffffff"
     bordercolor="#666666"
     borderopacity="1"
     objecttolerance="10"
     gridtolerance="10"
     guidetolerance="10"
     inkscape:pageopacity="0"
     inkscape:pageshadow="2"
     inkscape:window-width="1920"
     inkscape:window-height="1017"
     id="namedview817"
     showgrid="false"
     showguides="true"
     inkscape:zoom="0.99530519"
     inkscape:cx="314.82058"
     inkscape:cy="426.27864"
     inkscape:window-x="-8"
     inkscape:window-y="-8"
     inkscape:window-maximized="1"
     inkscape:current-layer="svg815"
     units="mm"
     height="210mm">
    <inkscape:grid
       type="xygrid"
       id="grid1490" />
  </sodipodi:namedview>
  <path
     style="fill:#0000cb;fill-opacity:0.99607843;stroke:none;stroke-width:1px;stroke-linecap:butt;stroke-linejoin:miter;stroke-opacity:1"
     d="m 398.26892,127.0641 c -58.52427,2.57469 -50.29847,96.21651 1.37556,98.77481 59.74761,2.95803 62.9121,-101.60309 -1.37556,-98.77481 z"
     id="path843"
     inkscape:connector-curvature="0"
     sodipodi:nodetypes="sss" />
  <path
     id="path825-2"
     style="fill:#0000cb;fill-opacity:0.99588479;stroke:none;stroke-width:1px;stroke-linecap:butt;stroke-linejoin:miter;stroke-opacity:1"
     d="m 324.54295,490.45149 c -21.83443,-10.91722 -6.39562,-57.69252 0.51985,-85.25832 11.82906,-47.15166 19.30577,-57.74623 -13.51655,-114.37087 -18.78279,-32.40371 -83.93476,-48.93545 -75.90067,-76.4205 9.8775,-33.79142 100.24193,33.6751 166.61755,33.53156 60.81854,-0.1308 152.29093,-66.45115 162.45861,-33.01167 5.87533,19.32286 -53.93221,47.41519 -75.38079,75.90061 -27.92182,37.08256 -19.37487,78.68876 -9.87749,114.89077 7.21176,27.48976 22.35431,74.3411 0.51988,85.25831 -21.83443,10.91721 -52.04292,-98.3995 -77.72021,-99.55456 -29.61749,-1.33243 -55.88574,109.95188 -77.72018,99.03467 z"
     inkscape:connector-curvature="0"
     sodipodi:nodetypes="sssssssssss" />
  <flowRoot
     xml:space="preserve"
     id="flowRoot1414"
     style="font-style:normal;font-weight:normal;font-size:192px;line-height:1.25;font-family:sans-serif;letter-spacing:0px;word-spacing:0px;fill:#000000;fill-opacity:1;stroke:none"
     transform="translate(0,-58.299208)"><flowRegion
       id="flowRegion1416"
       style="font-size:192px"><rect
         id="rect1418"
         width="529.27942"
         height="248.65475"
         x="98.041023"
         y="518.09216"
         style="font-size:192px" /></flowRegion><flowPara
       id="flowPara1420" /></flowRoot>  <g
     id="g885"
     transform="matrix(1.0348537,0,0,1.0348537,-108.54025,132.43569)"
     style="stroke-width:0.96632004">
    <path
       sodipodi:nodetypes="csssssssassc"
       inkscape:connector-curvature="0"
       id="path845"
       d="m 151.80204,240.49453 c 0,0 -17.93856,152.74938 4.52123,152.21462 21.09905,-0.50236 37.55242,-87.4739 48.22641,-94.4434 14.00145,-9.14214 42.80469,85.00602 58.77596,83.39151 13.61487,-1.3763 5.39813,-51.41868 1.5639,-102.372 -3.83025,-50.90049 -2.81079,-65.03507 -2.56862,-72.44875 1.19147,-36.4761 16.89909,-61.98032 33.46151,-79.50331 22.46227,-23.76501 56.15961,-40.449573 52.44179,-52.616983 -5.52594,-18.0849 -66.32696,18.34868 -97.9599,31.648603 -30.02736,12.62486 -68.18131,24.52988 -86.51805,45.43014 -12.92041,14.72672 -13.0206,43.11121 13.67606,57.05098 33.88937,17.69548 56.26416,50.73822 -25.62029,31.64859 z"
       style="opacity:1;fill:#d52900;fill-opacity:1;stroke:none;stroke-width:0.96632004px;stroke-linecap:butt;stroke-linejoin:miter;stroke-opacity:1" />
    <path
       sodipodi:nodetypes="sss"
       inkscape:connector-curvature="0"
       id="path843-5"
       d="m 193.64149,42.039517 c -42.71808,1.96486 -36.71389,73.425383 1.00404,75.377723 43.61103,2.25738 45.92086,-77.536073 -1.00404,-75.377723 z"
       style="fill:#d52a00;fill-opacity:1;stroke:none;stroke-width:0.96632004px;stroke-linecap:butt;stroke-linejoin:miter;stroke-opacity:1" />
    <path
       sodipodi:nodetypes="cscscc"
       inkscape:connector-curvature="0"
       id="path1492"
       d="m 165,91.999999 c 0,0 -16.83444,-36.492216 9.67168,-54.189083 C 193.36043,25.333333 210,42 210,42 210,42 240,19.777778 244.79548,33.621833 247.67288,41.928595 217.5,58.666666 217.5,58.666666 Z"
       style="fill:#d52a00;fill-opacity:1;stroke:#ffffff;stroke-width:1.93264008;stroke-linecap:butt;stroke-linejoin:miter;stroke-miterlimit:4;stroke-dasharray:none;stroke-opacity:1" />
  </g>
  <path
     id="path1526"
     style="fill:#0000cb;fill-opacity:0.99607843;stroke:#ffffff;stroke-width:2;stroke-linecap:butt;stroke-linejoin:miter;stroke-miterlimit:4;stroke-dasharray:none;stroke-opacity:1"
     d="m 356.9745,171.95376 c 0,0 30.67088,9.55757 46.00632,9.55757 13.98542,0 41.95624,-9.55757 41.95624,-9.55757 m -87.96256,0 c 0,0 -6.90488,20.70482 0,25.87131 14.54471,10.88286 64.93059,10.71735 85.52035,-0.15348 14.0516,-7.4194 2.44221,-25.71696 2.44221,-25.71696 0,0 0,-46.56846 -41.39416,-46.56846 -41.39414,0 -46.5684,36.21997 -46.5684,46.56846 z"
     inkscape:connector-curvature="0" />
  <g
     id="g880"
     transform="matrix(1.0348537,0,0,1.0348537,157.63196,134.50528)"
     style="stroke-width:0.96632004">
    <path
       sodipodi:nodetypes="csssssssassc"
       inkscape:connector-curvature="0"
       id="path845-3"
       d="m 572.86443,240.49475 c 0,0 17.93856,152.74938 -4.52122,152.21462 -21.09906,-0.50236 -37.55243,-87.4739 -48.22642,-94.4434 -14.00145,-9.14214 -42.80468,85.00602 -58.77595,83.39151 -13.61487,-1.3763 -5.39813,-51.41868 -1.5639,-102.372 3.83025,-50.90049 2.81079,-65.03507 2.56862,-72.44875 -1.19147,-36.4761 -16.89909,-61.98032 -33.46151,-79.50331 -22.46227,-23.76501 -56.15961,-40.449573 -52.44179,-52.616983 5.52594,-18.0849 66.32696,18.34868 97.9599,31.648603 30.02736,12.62486 68.1813,24.52988 86.51804,45.43014 12.92042,14.72672 13.0206,43.11121 -13.67606,57.05098 -33.88937,17.69548 -56.26415,50.73822 25.62029,31.64859 z"
       style="fill:#00c803;fill-opacity:1;stroke:none;stroke-width:0.96632004px;stroke-linecap:butt;stroke-linejoin:miter;stroke-opacity:1" />
    <path
       sodipodi:nodetypes="sss"
       inkscape:connector-curvature="0"
       id="path843-5-4"
       d="m 526.27427,36.817287 c -42.71809,1.96486 -36.71389,73.425383 1.00404,75.377723 43.61102,2.25738 45.92085,-77.536073 -1.00404,-75.377723 z"
       style="fill:#00c800;fill-opacity:1;stroke:none;stroke-width:0.96632004px;stroke-linecap:butt;stroke-linejoin:miter;stroke-opacity:1" />
    <path
       sodipodi:nodetypes="cscscc"
       inkscape:connector-curvature="0"
       id="path1492-2"
       d="m 559,87.999999 c 0,0 16.83444,-36.492216 -9.67168,-54.189083 C 530.63957,21.333333 514,38 514,38 514,38 484,15.777778 479.20452,29.621833 476.32712,37.928595 506.5,54.666666 506.5,54.666666 Z"
       style="fill:#00c803;fill-opacity:1;stroke:#ffffff;stroke-width:1.93264008;stroke-linecap:butt;stroke-linejoin:miter;stroke-miterlimit:4;stroke-dasharray:none;stroke-opacity:1" />
  </g>
  <g
     aria-label="A"
     transform="matrix(1.7440195,0,0,1.7440195,-134.38154,-543.88818)"
     style="font-style:normal;font-weight:normal;font-size:40px;line-height:1.25;font-family:sans-serif;letter-spacing:0px;word-spacing:0px;fill:#0000cb;fill-opacity:0.99607843;stroke:#ffffff;stroke-width:1.1467762;stroke-miterlimit:4;stroke-dasharray:none;stroke-opacity:1"
     id="flowRoot1422">
    <path
       d="m 185.0562,677.01123 h -34.176 l -4.608,32.448 h -29.952 l 32.064,-155.136 h 39.168 l 32.256,155.136 h -29.76 z m -31.296,-19.392 h 28.416 l -12.672,-83.904 h -3.072 z"
       style="font-style:normal;font-variant:normal;font-weight:normal;font-stretch:normal;font-size:192px;font-family:Unispace;-inkscape-font-specification:Unispace;fill:#0000cb;fill-opacity:0.99607843;stroke:#ffffff;stroke-width:1.1467762;stroke-miterlimit:4;stroke-dasharray:none;stroke-opacity:1"
       id="path887"
       inkscape:connector-curvature="0" />
  </g>
  <g
     aria-label=" I"
     transform="matrix(1.7440195,0,0,1.7440195,86.407705,-543.88818)"
     style="font-style:normal;font-weight:normal;font-size:40px;line-height:1.25;font-family:sans-serif;letter-spacing:0px;word-spacing:0px;fill:#d52900;fill-opacity:1;stroke:#ffffff;stroke-width:1.1467762;stroke-miterlimit:4;stroke-dasharray:none;stroke-opacity:1"
     id="flowRoot1422-2">
    <path
       d="m 332.9592,554.32323 v 19.392 h -32.448 v 116.736 h 32.448 v 19.008 h -95.232 v -19.008 h 32.832 v -116.736 h -32.832 v -19.392 z"
       style="font-style:normal;font-variant:normal;font-weight:normal;font-stretch:normal;font-size:192px;font-family:Unispace;-inkscape-font-specification:Unispace;fill:#d52900;fill-opacity:1;stroke:#ffffff;stroke-width:1.1467762;stroke-miterlimit:4;stroke-dasharray:none;stroke-opacity:1"
       id="path893"
       inkscape:connector-curvature="0" />
  </g>
  <g
     aria-label="J"
     transform="matrix(1.7440195,0,0,1.7440195,82.383445,-543.88818)"
     style="font-style:normal;font-weight:normal;font-size:40px;line-height:1.25;font-family:sans-serif;letter-spacing:0px;word-spacing:0px;fill:#00c803;fill-opacity:1;stroke:#ffffff;stroke-width:1.1467762;stroke-miterlimit:4;stroke-dasharray:none;stroke-opacity:1"
     id="flowRoot1422-7">
    <path
       d="m 215.3922,554.32323 v 113.088 q 0,8.64 -2.112,16.32 -2.112,7.68 -6.144,13.44 -3.84,5.76 -9.408,9.024 -5.376,3.264 -12.096,3.264 h -64.704 v -19.008 h 52.224 q 3.072,0 5.568,-1.92 2.496,-1.92 4.224,-5.184 1.728,-3.264 2.688,-7.296 0.96,-4.224 0.96,-8.64 v -93.696 h -38.016 v -19.392 z"
       style="font-style:normal;font-variant:normal;font-weight:normal;font-stretch:normal;font-size:192px;font-family:Unispace;-inkscape-font-specification:Unispace;fill:#00c803;fill-opacity:1;stroke:#ffffff;stroke-width:1.1467762;stroke-miterlimit:4;stroke-dasharray:none;stroke-opacity:1"
       id="path890"
       inkscape:connector-curvature="0" />
  </g>
</svg>
