<?xml version="1.0" encoding="UTF-8" standalone="no"?>
<!-- Created with Inkscape (http://www.inkscape.org/) -->

<svg
   xmlns:dc="http://purl.org/dc/elements/1.1/"
   xmlns:cc="http://creativecommons.org/ns#"
   xmlns:rdf="http://www.w3.org/1999/02/22-rdf-syntax-ns#"
   xmlns:svg="http://www.w3.org/2000/svg"
   xmlns="http://www.w3.org/2000/svg"
   xmlns:xlink="http://www.w3.org/1999/xlink"
   xmlns:sodipodi="http://sodipodi.sourceforge.net/DTD/sodipodi-0.dtd"
   xmlns:inkscape="http://www.inkscape.org/namespaces/inkscape"
   version="1.1"
   id="svg815"
   width="210mm"
   height="210mm"
   viewBox="0 0 793.70079 793.7008"
   sodipodi:docname="logoAJI1.svg"
   inkscape:version="0.92.4 (5da689c313, 2019-01-14)">
  <metadata
     id="metadata821">
    <rdf:RDF>
      <cc:Work
         rdf:about="">
        <dc:format>image/svg+xml</dc:format>
        <dc:type
           rdf:resource="http://purl.org/dc/dcmitype/StillImage" />
        <dc:title />
      </cc:Work>
    </rdf:RDF>
  </metadata>
  <defs
     id="defs819">
    <clipPath
       clipPathUnits="userSpaceOnUse"
       id="clipPath839">
      <use
         x="0"
         y="0"
         xlink:href="#g835"
         id="use841"
         width="100%"
         height="100%" />
    </clipPath>
  </defs>
  <sodipodi:namedview
     pagecolor="#ffffff"
     bordercolor="#666666"
     borderopacity="1"
     objecttolerance="10"
     gridtolerance="10"
     guidetolerance="10"
     inkscape:pageopacity="0"
     inkscape:pageshadow="2"
     inkscape:window-width="1920"
     inkscape:window-height="1017"
     id="namedview817"
     showgrid="false"
     showguides="true"
     inkscape:zoom="0.99530519"
     inkscape:cx="334.242"
     inkscape:cy="426.27864"
     inkscape:window-x="-8"
     inkscape:window-y="-8"
     inkscape:window-maximized="1"
     inkscape:current-layer="svg815"
     units="mm"
     height="210mm">
    <inkscape:grid
       type="xygrid"
       id="grid1490" />
  </sodipodi:namedview>
  <flowRoot
     xml:space="preserve"
     id="flowRoot1414"
     style="font-style:normal;font-weight:normal;font-size:192px;line-height:1.25;font-family:sans-serif;letter-spacing:0px;word-spacing:0px;fill:#000000;fill-opacity:1;stroke:none"
     transform="translate(0,-58.299208)"><flowRegion
       id="flowRegion1416"
       style="font-size:192px"><rect
         id="rect1418"
         width="529.27942"
         height="248.65475"
         x="98.041023"
         y="518.09216"
         style="font-size:192px" /></flowRegion><flowPara
       id="flowPara1420" /></flowRoot>  <path
     style="fill:#d55300;fill-opacity:1;stroke:#ffffff;stroke-width:1.99999988;stroke-linecap:butt;stroke-linejoin:miter;stroke-miterlimit:4;stroke-dasharray:none;stroke-opacity:1"
     d="m 84.671242,114.3418 c 0,0 -26.768671,-58.026776 15.379088,-86.166816 29.71723,-19.8407734 56.17605,6.661123 56.17605,6.661123 0,0 47.7034,-35.33586942 55.32877,-13.322245 4.5754,13.208694 -43.40293,39.824141 -43.40293,39.824141 z"
     id="path1492"
     inkscape:connector-curvature="0"
     sodipodi:nodetypes="cscscc" />
  <path
     id="path1526"
     style="fill:#0000cb;fill-opacity:0.99607843;stroke:none;stroke-width:2;stroke-linecap:butt;stroke-linejoin:miter;stroke-miterlimit:4;stroke-dasharray:none;stroke-opacity:1"
     d="m 340.93483,280.41372 c 0,0 41.1802,14.68577 61.77031,14.68577 18.77748,0 56.33247,-14.68577 56.33247,-14.68577 m -118.10278,0 c 0,0 -9.27083,31.81419 0,39.7528 19.52842,16.72217 87.17894,16.46785 114.82375,-0.23582 18.86635,-11.40036 3.27903,-39.51563 3.27903,-39.51563 0,0 0,-71.5552 -55.5778,-71.5552 -55.57777,0 -62.52498,55.65413 -62.52498,71.5552 z"
     inkscape:connector-curvature="0" />
  <path
     style="fill:#00c803;fill-opacity:1;stroke:none;stroke-width:0.99999994px;stroke-linecap:butt;stroke-linejoin:miter;stroke-opacity:1"
     d="m 431.00988,79.012873 c -6.94245,0.110476 -11.68031,2.452902 -13.32785,7.844861 -5.91177,19.347566 47.67078,45.878366 83.38836,83.667446 26.33613,27.86355 51.31179,68.41985 53.20635,126.42101 0.38508,11.78858 2.00607,34.26234 -4.08448,115.19992 -6.09686,81.0216 -19.16129,160.59376 2.48791,162.78224 25.39613,2.56725 71.1961,-147.1373 93.46001,-132.60027 16.97287,11.08231 43.137,149.37586 76.68691,150.17466 35.71362,0.85032 7.1876,-242.03808 7.1876,-242.03808 -130.20558,30.3547 -94.62778,-22.18748 -40.73981,-50.32531 42.45073,-22.16584 42.29387,-67.29986 21.74892,-90.71702 C 681.86629,176.18852 621.19465,157.258 573.44772,137.18304 532.57899,119.99996 461.09384,78.534298 431.00988,79.012873 Z M 570.17654,186.15185 h 77.14006 v 15.70773 h -26.28356 v 94.55841 h 26.28356 v 15.3956 h -77.14006 v -15.3956 h 26.59567 v -94.55841 h -26.59567 z"
     id="path845-3"
     inkscape:connector-curvature="0" />
  <path
     style="fill:#00c803;fill-opacity:1;stroke:#ffffff;stroke-width:1.99999988;stroke-linecap:butt;stroke-linejoin:miter;stroke-miterlimit:4;stroke-dasharray:none;stroke-opacity:1"
     d="m 707.96902,104.98617 c 0,0 26.76867,-58.026799 -15.37909,-86.166839 -29.71724,-19.8407744 -56.17605,6.661122 -56.17605,6.661122 0,0 -47.70341,-35.3358459 -55.32877,-13.322233 -4.5754,13.208694 43.40292,39.824129 43.40292,39.824129 z"
     id="path1492-2"
     inkscape:connector-curvature="0"
     sodipodi:nodetypes="cscscc" />
  <g
     aria-label="A"
     transform="matrix(0.81001089,0,0,0.81001089,37.32436,-262.7626)"
     style="font-style:normal;font-weight:normal;font-size:40px;line-height:1.25;font-family:sans-serif;letter-spacing:0px;word-spacing:0px;fill:#d55300;fill-opacity:1;stroke:none;stroke-width:2.46910286;stroke-miterlimit:4;stroke-dasharray:none;stroke-opacity:1"
     id="flowRoot1422">
    <path
       id="path887"
       style="font-style:normal;font-variant:normal;font-weight:normal;font-stretch:normal;font-size:192px;font-family:Unispace;-inkscape-font-specification:Unispace;fill:#d55300;fill-opacity:1;stroke:none;stroke-width:2.46910286;stroke-miterlimit:4;stroke-dasharray:none;stroke-opacity:1"
       d="m 185.0562,677.01123 h -34.176 l -4.608,32.448 h -29.952 l 32.064,-155.136 h 39.168 l 32.256,155.136 h -29.76 z m -31.296,-19.392 h 28.416 l -12.672,-83.904 h -3.072 z M 32.543525,757.06095 c 0,0 -35.2147687,299.85885 8.875539,298.80905 41.419064,-0.9862 73.718296,-171.71802 94.672166,-185.39969 27.48593,-17.94673 84.02891,166.87339 115.38175,163.70399 26.72704,-2.7018 10.59694,-100.93885 3.07006,-200.96415 -7.51908,-99.92159 -5.5178,-127.66888 -5.04241,-142.2225 2.33896,-71.6054 33.17423,-121.67215 65.68754,-156.07113 44.09516,-46.65255 110.24565,-79.40565 102.94728,-103.2912 C 407.2876,396.12326 287.93051,467.6452 225.83259,493.75397 166.88658,518.53754 91.987418,541.90802 55.990969,582.93684 30.627215,611.84653 30.430538,667.56747 82.838147,694.93233 149.3656,729.66991 193.28903,794.53536 32.543525,757.06095 Z"
       inkscape:connector-curvature="0" />
  </g>
  <g
     aria-label=" I"
     transform="matrix(0.81001089,0,0,0.81001089,377.61634,-265.85021)"
     style="font-style:normal;font-weight:normal;font-size:40px;line-height:1.25;font-family:sans-serif;letter-spacing:0px;word-spacing:0px;fill:#d55300;fill-opacity:1;stroke:none;stroke-width:2.46910286;stroke-miterlimit:4;stroke-dasharray:none;stroke-opacity:1"
     id="flowRoot1422-2" />
  <g
     aria-label="J"
     transform="matrix(0.52715894,0,0,0.52715894,319.84512,183.8959)"
     style="font-style:normal;font-weight:normal;font-size:40px;line-height:1.25;font-family:sans-serif;letter-spacing:0px;word-spacing:0px;fill:#00c803;fill-opacity:1;stroke:none;stroke-width:3.79392242;stroke-miterlimit:4;stroke-dasharray:none;stroke-opacity:1"
     id="flowRoot1422-7">
    <g
       id="g837"
       clip-path="url(#clipPath839)">
      <g
         inkscape:label="Clip"
         id="g835" />
    </g>
  </g>
  <path
     style="fill:#0000cb;fill-opacity:0.99588479;stroke:none;stroke-width:1px;stroke-linecap:butt;stroke-linejoin:miter;stroke-opacity:1"
     d="m 169.05056,331.08111 c -11.94293,-0.11775 -20.13056,4.00854 -23.21345,14.55529 -12.34486,42.23242 87.76458,67.63652 116.62544,117.42674 50.43344,87.0071 38.9466,103.28665 20.77055,175.73796 -10.62604,42.35648 -34.34819,114.22872 -0.79829,131.00368 33.54991,16.77493 73.91044,-154.22076 119.41946,-152.1734 39.45467,1.77483 85.87258,169.74662 119.42247,152.97169 33.54989,-16.77494 10.28301,-88.76404 -0.79831,-131.00368 -14.59326,-55.62654 -27.72699,-119.55671 15.17654,-176.53625 32.95701,-43.76953 124.85494,-86.93472 115.82715,-116.62544 -15.62324,-51.38174 -156.17657,50.52347 -249.62785,50.72445 -81.27333,0.17578 -185.95071,-65.61921 -232.80371,-66.08104 z m 211.25888,117.6128 h 54.12168 v 91.60235 c 0,4.66565 -0.57012,9.06953 -1.71061,13.2168 -1.14051,4.14725 -2.79849,7.77752 -4.97581,10.88797 -2.07363,3.11044 -4.61302,5.54806 -7.61978,7.31065 -2.90307,1.76259 -6.16971,2.64397 -9.79857,2.64397 h -52.41107 v -15.3986 h 42.3004 c 1.6589,0 3.16278,-0.51776 4.51063,-1.55457 1.34787,-1.03683 2.48812,-2.43595 3.42126,-4.19853 0.93312,-1.76259 1.66038,-3.73184 2.17878,-5.90916 0.51842,-2.28099 0.77728,-4.61387 0.77728,-6.99853 v -75.89462 h -30.79419 z"
     id="path825-2"
     inkscape:connector-curvature="0" />
</svg>
