<?xml version="1.0" encoding="UTF-8" standalone="no"?>
<!-- Created with Inkscape (http://www.inkscape.org/) -->

<svg
   xmlns:dc="http://purl.org/dc/elements/1.1/"
   xmlns:cc="http://creativecommons.org/ns#"
   xmlns:rdf="http://www.w3.org/1999/02/22-rdf-syntax-ns#"
   xmlns:svg="http://www.w3.org/2000/svg"
   xmlns="http://www.w3.org/2000/svg"
   xmlns:sodipodi="http://sodipodi.sourceforge.net/DTD/sodipodi-0.dtd"
   xmlns:inkscape="http://www.inkscape.org/namespaces/inkscape"
   version="1.1"
   id="svg907"
   width="450"
   height="110"
   viewBox="0 0 450 110"
   sodipodi:docname="logoAJI1.svg"
   inkscape:version="0.92.4 (5da689c313, 2019-01-14)"
   inkscape:export-filename="C:\Users\RicardoGrcs\bitmap.png"
   inkscape:export-xdpi="72"
   inkscape:export-ydpi="72">
  <metadata
     id="metadata913">
    <rdf:RDF>
      <cc:Work
         rdf:about="">
        <dc:format>image/svg+xml</dc:format>
        <dc:type
           rdf:resource="http://purl.org/dc/dcmitype/StillImage" />
        <dc:title />
      </cc:Work>
    </rdf:RDF>
  </metadata>
  <defs
     id="defs911" />
  <sodipodi:namedview
     pagecolor="#ffffff"
     bordercolor="#666666"
     borderopacity="1"
     objecttolerance="10"
     gridtolerance="10"
     guidetolerance="10"
     inkscape:pageopacity="0"
     inkscape:pageshadow="2"
     inkscape:window-width="1920"
     inkscape:window-height="1017"
     id="namedview909"
     showgrid="false"
     inkscape:zoom="0.98712105"
     inkscape:cx="464.06674"
     inkscape:cy="130.63843"
     inkscape:window-x="-8"
     inkscape:window-y="-8"
     inkscape:window-maximized="1"
     inkscape:current-layer="svg907" />
  <flowRoot
     xml:space="preserve"
     id="flowRoot1498"
     style="font-style:normal;font-weight:normal;font-size:40px;line-height:1.25;font-family:sans-serif;letter-spacing:0px;word-spacing:0px;fill:#000000;fill-opacity:1;stroke:none"
     transform="translate(0,-440)"><flowRegion
       id="flowRegion1500"><rect
         id="rect1502"
         width="559.2019"
         height="217.8051"
         x="-108.39603"
         y="311.93396" /></flowRegion><flowPara
       id="flowPara1504" /></flowRoot>  <flowRoot
     xml:space="preserve"
     id="flowRoot1506"
     style="font-style:normal;font-weight:normal;font-size:40px;line-height:1.25;font-family:sans-serif;letter-spacing:0px;word-spacing:0px;fill:#000000;fill-opacity:1;stroke:none"
     transform="translate(0,-440)"><flowRegion
       id="flowRegion1508"><rect
         id="rect1510"
         width="319.1098"
         height="201.59634"
         x="-49.639301"
         y="292.68607" /></flowRegion><flowPara
       id="flowPara1512" /></flowRoot>  <path
     style="fill:#ffffff;fill-opacity:1;stroke-width:1"
     d="m 245.87559,56.657165 c -0.46674,-0.10044 -1.44137,-0.7417 -2.16584,-1.42496 -2.14661,-2.02451 -1.91855,-3.01862 2.41008,-10.50554 1.05748,-1.82904 1.9227,-3.46328 1.9227,-3.63165 0,-0.16838 -0.42068,-0.41171 -0.93482,-0.54076 -0.51414,-0.12904 -1.19215,-0.73225 -1.50666,-1.34045 -1.68214,-3.2529 0.57838,-6.42022 5.00083,-7.00688 l 1.98606,-0.26346 1.54664,-2.68062 c 10.63679,-18.43553 15.28974,-24.9029 19.04535,-26.47209 1.55159,-0.64829 6.51932,-0.76607 8.02563,-0.19029 2.19129,0.83762 2.38418,1.45575 2.70215,8.65906 0.47048,10.65858 1.40555,25.71213 2.03608,32.77831 0.32058,3.59275 0.48737,6.91284 0.37064,7.37796 -0.31102,1.23916 -1.63244,2.77835 -2.99272,3.4859 -1.46887,0.76405 -5.09701,0.73491 -6.62098,-0.0532 -1.55511,-0.80417 -1.89813,-2.20535 -2.35537,-9.62131 -0.22354,-3.62542 -0.45514,-6.6473 -0.51469,-6.7153 -0.14337,-0.16376 -12.21802,0.91815 -12.35603,1.10712 -0.0588,0.0806 -1.44719,2.58178 -3.08521,5.5582 -3.64161,6.61718 -5.69724,9.75522 -7.02302,10.72102 -1.00558,0.73255 -3.81153,1.12037 -5.49082,0.75892 z m 27.68606,-27.06771 c 0.3505,-0.11805 0.47084,-1.70197 0.47084,-6.19707 0,-3.32116 -0.1282,-6.03847 -0.28491,-6.03847 -0.29895,0 -7.24841,12.20318 -7.24841,12.72815 0,0.28122 6.00957,-0.13796 7.06248,-0.49261 z M 16.486945,55.045415 c -3.25758,-2.0123 -3.14332,-6.7653 0.20331,-8.45661 0.55141,-0.27867 2.14103,-0.71715 3.53247,-0.97441 1.7583,-0.32508 2.59117,-0.66076 2.73077,-1.10065 0.9408,-2.96418 7.60118,-30.17317 7.38597,-30.17317 -0.15364,0 -1.26035,0.19702 -2.45935,0.43781 -1.89314,0.3802 -2.33858,0.35241 -3.3851,-0.21118 -1.55646,-0.83821 -2.51253,-2.48489 -2.53857,-4.37234 -0.042,-3.04086 1.53962,-4.18687 7.32624,-5.30861 4.84243,-0.9387 14.803213,-2.22233 17.245041,-2.22233 1.60686,0 2.07408,0.18295 3.272867,1.28155 1.158391,1.06158 1.398397,1.53538 1.398397,2.76046 0,2.82669 -2.653259,5.21419 -6.352499,5.71618 -1.157617,0.15709 -2.165094,0.35639 -2.238853,0.44288 -0.07379,0.0864 -1.692795,6.59824 -3.597857,14.47057 -1.905062,7.87232 -3.564944,14.72146 -3.688629,15.2203 -0.223973,0.90335 -0.215465,0.906 2.115738,0.66235 2.774459,-0.29 4.194439,0.2763 5.319489,2.12145 1.415528,2.32154 0.5283,4.74575 -2.355381,6.4357 -1.353266,0.79307 -2.732505,1.09108 -8.027753,1.7346 -5.70316,0.69309 -11.81338,1.61708 -13.92708,2.10607 -0.41434,0.0958 -1.29598,-0.16093 -1.95922,-0.57062 z m 35.01562,0.33126 c -1.906839,-0.25961 -3.390346,-1.52362 -3.695164,-3.14844 -0.248953,-1.32704 10.231783,-43.87977 11.57883,-47.01105 0.517556,-1.20308 1.177309,-2.03695 1.912399,-2.41708 1.409518,-0.72889 5.800327,-0.73276 7.53818,-0.006 1.242424,0.51912 1.324607,0.71324 6.860868,16.20625 3.081848,8.62446 5.710629,15.68084 5.841737,15.68084 0.131098,0 0.891481,-3.09337 1.689743,-6.87416 2.183949,-10.34381 3.778768,-16.5837 4.819638,-18.85724 1.07508,-2.34828 3.27711,-4.93843 4.921262,-5.78866 1.975268,-1.02144 6.935275,0.006 7.531772,1.56095 0.12214,0.31829 -0.693459,4.35019 -1.812447,8.95975 -1.118998,4.60957 -3.579294,15.05616 -5.46733,23.21464 -1.888036,8.15846 -3.773877,15.50216 -4.19075,16.31929 -1.015974,1.99148 -2.420715,2.53826 -5.622425,2.18847 -2.714497,-0.29657 -3.545776,-0.6372 -4.757189,-1.94932 -0.447904,-0.48514 -3.108375,-6.89932 -5.912151,-14.25372 -2.803787,-7.35442 -5.296411,-13.88016 -5.539166,-14.50166 -0.404404,-1.0353 -0.731934,0.0415 -3.908455,12.84969 -1.906881,7.68883 -3.692656,14.52432 -3.968387,15.18999 -0.27573,0.66567 -0.924655,1.48769 -1.442065,1.82671 -1.114786,0.73042 -4.143685,1.1157 -6.3789,0.81138 z m 51.979925,0 c -1.90683,-0.25961 -3.39034,-1.52362 -3.695159,-3.14844 -0.248953,-1.32704 10.231779,-43.87977 11.578829,-47.01105 0.51756,-1.20308 1.17731,-2.03695 1.9124,-2.41708 1.41564,-0.73206 5.80302,-0.73163 7.55583,7.5e-4 1.25827,0.52573 1.35441,0.74526 7.25629,16.56952 3.28961,8.8202 6.08907,15.91563 6.22101,15.76762 0.13193,-0.14801 1.81005,-7.21859 3.72915,-15.71242 2.34626,-10.38442 3.70439,-15.67178 4.14596,-16.14075 0.86789,-0.92177 2.75816,-1.27877 5.09857,-0.96293 2.27215,0.30662 5.68358,1.70601 5.96842,2.44828 0.11185,0.2915 -0.71216,4.30146 -1.83115,8.91104 -1.11899,4.60956 -3.57928,15.05614 -5.46732,23.21462 -1.88804,8.15848 -3.77359,15.5016 -4.19012,16.31805 -0.90068,1.76549 -2.45703,2.53962 -4.63967,2.30779 -5.84303,-0.62063 -5.30316,0.13664 -12.27118,-17.21302 -3.21108,-7.99526 -5.93027,-14.54013 -6.04263,-14.54413 -0.11237,-0.004 -1.69828,6.13709 -3.52426,13.64687 -1.82597,7.50978 -3.62496,14.36002 -3.99775,15.22276 -0.3728,0.86274 -1.07514,1.78656 -1.56075,2.05292 -1.14266,0.62677 -4.21592,0.96606 -6.24647,0.68961 z m 70.08976,-0.0179 c -8.48299,-0.80306 -14.5387,-6.18268 -16.91707,-15.02828 -0.97716,-3.63427 -0.90466,-10.86512 0.1522,-15.18016 2.7311,-11.15061 10.5615,-19.53482 20.67223,-22.13427 4.66108,-1.19836 14.02978,-0.9612 17.7536,0.44942 2.48767,0.94236 3.18819,2.56072 2.16667,5.00555 -0.50881,1.21775 -0.48959,1.29115 0.53662,2.04987 1.34102,0.99146 3.34525,5.0159 3.68667,7.40276 0.39902,2.7895 -0.17635,10.27291 -1.09069,14.18563 -1.74619,7.47253 -4.51746,12.85276 -8.81117,17.10636 -4.9872,4.94058 -10.64018,6.85403 -18.14906,6.14315 z m 4.99277,-9.23219 c 5.0491,-2.39596 10.43847,-13.39554 11.27783,-23.01778 0.34158,-3.91579 0.15859,-4.57059 -1.93669,-6.92974 -1.26241,-1.42141 -1.67895,-2.17388 -1.5569,-2.81239 0.20945,-1.09561 -0.27312,-1.28618 -3.25684,-1.28618 -5.82737,0 -10.82523,5.46636 -13.62014,14.8969 -1.33253,4.49622 -1.70136,11.20094 -0.77036,14.00394 0.70676,2.12783 2.48135,4.32848 4.17736,5.18028 1.47824,0.74243 4.08115,0.7264 5.68574,-0.035 z m 41.41804,9.06923 c -2.26265,-0.57451 -4.28879,-2.22664 -5.54897,-4.52469 -2.32551,-4.24073 -4.35828,-21.24343 -4.48257,-37.49333 -0.0616,-8.04985 0.15413,-8.85579 2.72024,-10.16493 1.8916,-0.96502 4.97433,-1.0664 6.61579,-0.21757 2.04211,1.05602 2.29831,2.50136 2.54728,14.37019 0.23298,11.1075 0.85455,22.28446 1.28245,23.06078 0.14358,0.2605 1.30427,-1.86796 2.67026,-4.89666 7.44518,-16.50778 12.6475,-26.88466 15.29818,-30.51472 1.54422,-2.11479 2.62523,-2.63375 5.38472,-2.58504 3.39394,0.0599 6.46045,1.98566 7.18506,4.51223 0.48326,1.68503 -1.13123,4.69527 -4.68134,8.72842 -3.22662,3.66564 -5.9807,8.73513 -12.07319,22.2233 -6.21783,13.76572 -7.12156,15.31226 -9.72338,16.63962 -2.05778,1.04979 -5.04586,1.40798 -7.19453,0.8624 z m 84.80576,0.12214 c -2.13421,-0.19373 -3.40846,-0.53385 -4.58642,-1.22418 -2.79731,-1.63933 -5.45327,-5.54786 -5.45327,-8.02504 0,-0.64929 1.70589,-7.81688 3.79086,-15.92797 2.08497,-8.11109 3.704,-14.83428 3.59785,-14.94044 -0.10616,-0.10615 -1.47072,0.4962 -3.03238,1.33854 l -2.83937,1.53154 -0.96376,-1.26356 c -1.07725,-1.41235 -1.69522,-4.36822 -1.25632,-6.00931 0.1582,-0.59152 0.65948,-1.47131 1.11397,-1.95509 0.83882,-0.89288 4.79066,-2.69094 7.87581,-3.58342 1.16624,-0.33738 2.22972,-1.05363 3.40919,-2.29609 1.23557,-1.30158 2.02432,-1.81988 2.82499,-1.85634 2.38823,-0.10876 4.54821,0.15627 5.57079,0.68355 0.68894,0.35524 1.56084,0.46921 2.44833,0.32008 2.18597,-0.36737 7.61969,0.40803 9.88155,1.4101 4.50428,1.99553 8.30003,6.95118 9.59235,12.52356 1.53499,6.61875 0.23005,15.82887 -3.25427,22.96825 -5.6294,11.53463 -16.05755,17.45524 -28.7199,16.30582 z m 10.48861,-10.85149 c 2.74052,-1.29676 6.13894,-4.90809 7.81963,-8.30954 2.16048,-4.3725 3.02041,-8.06254 3.06519,-13.15311 0.0331,-3.76671 -0.0743,-4.57549 -0.82359,-6.20122 -1.66073,-3.60324 -3.49958,-4.7221 -7.76085,-4.7221 -2.35655,0 -2.84577,0.10728 -3.00603,0.65917 -0.10528,0.36255 -1.90016,7.60866 -3.98861,16.10248 -2.08845,8.49382 -3.89632,15.76095 -4.01749,16.14917 -0.20704,0.66335 -0.008,0.69562 3.30406,0.53607 2.6698,-0.12861 3.98101,-0.38585 5.40769,-1.06092 z m 44.78334,10.87626 c -7.86384,-0.76771 -12.94873,-5.62693 -15.11819,-14.44726 -0.96397,-3.91923 -0.88,-11.43625 0.1759,-15.74516 3.39895,-13.87056 14.1665,-22.86043 27.41997,-22.89305 5.88886,-0.0145 9.48515,1.42293 13.00649,5.19865 3.50168,3.75462 4.90266,8.20861 4.94978,15.73625 0.0391,6.25286 -0.84426,10.06233 -3.66847,15.81998 -5.70833,11.63749 -15.24376,17.4554 -26.76548,16.33059 z m 6.81574,-9.21614 c 3.65617,-1.73497 8.29848,-9.26588 10.19033,-16.53111 1.30819,-5.02384 1.48779,-12.72366 0.35025,-15.01695 -1.05135,-2.1195 -2.51652,-2.87159 -5.5976,-2.87328 -3.10828,-0.002 -4.58416,0.57577 -6.88008,2.69208 -4.84587,4.46677 -7.97733,12.08244 -8.35523,20.3199 -0.15963,3.47914 -0.0722,4.75433 0.42923,6.26411 0.70675,2.12783 2.48134,4.32848 4.17735,5.18028 1.47825,0.74243 4.08115,0.7264 5.68575,-0.035 z m 38.94653,9.24153 c -6.99642,-0.6076 -9.08094,-4.31201 -10.96925,-8.44599 -0.88618,-1.94013 -0.87476,-2.61257 0.0778,-4.58013 0.6467,-1.33594 1.18578,-1.80874 3.10749,-2.72551 1.27879,-0.61007 -1.91082,-1.2124 -1.15198,-1.33852 1.31554,-0.21867 1.39991,-0.16795 1.81546,1.09105 0.5784,1.75262 3.34087,4.13016 5.97777,5.14478 3.00157,1.15497 7.63411,1.38278 10.4037,0.51164 2.93453,-0.92302 4.34168,-2.29789 4.34168,-4.24208 0,-2.10618 -1.30252,-3.13214 -7.72704,-6.08631 -6.5471,-3.01055 -8.95204,-4.40429 -11.40459,-6.60933 -5.64732,-5.07743 -5.58802,-14.27362 0.12904,-20.02039 3.84487,-3.86479 9.46548,-5.7927 16.96204,-5.81805 7.01183,-0.0237 12.17738,1.66084 15.67925,5.11325 4.99999,4.92937 3.06734,11.1213 -3.47124,11.1213 -1.77873,0 -1.96175,-0.0876 -2.55749,-1.22416 -1.01435,-1.93525 -3.53471,-4.21412 -5.2186,-4.71864 -2.45044,-0.73416 -6.81479,-0.57316 -8.7947,0.32446 -2.95231,1.33846 -4.51999,3.32828 -4.51999,5.73717 0,1.85425 1.02582,2.90012 4.38104,4.46674 14.46312,6.75301 15.41943,7.32175 17.43987,10.37207 1.50128,2.26651 1.95091,4.00437 1.95091,7.54032 0,6.08271 -3.69005,10.34085 -11.2004,12.9248 -3.68508,1.26785 -10.24354,1.89637 -15.25069,1.46153 z"
     id="path862"
     inkscape:connector-curvature="0"
     sodipodi:nodetypes="cccsccscsccsccssscccsccssscscscscscsscscssccccscsccsccssssscssssssssscccccsccscscscssssscscsccsssssccsssscsccsssscccssssssscscssscscsssscccccsscscssssscsscscssssscccsscscccssscccccccccssccccsscccsccscc" />
  <g
     aria-label="NIT: 901385629-2T"
     style="font-style:normal;font-weight:normal;font-size:40px;line-height:1.25;font-family:sans-serif;letter-spacing:0px;word-spacing:0px;fill:#000000;fill-opacity:1;stroke:none"
     id="text833"
     transform="translate(0,-395.36632)">
    <path
       d="M 85.359375,483.75256 H 81.53125 L 70.5,462.94006 v 20.8125 h -2.890625 v -23.26562 h 4.796875 l 10.0625,19 v -19 h 2.890625 z"
       style="font-style:normal;font-variant:normal;font-weight:normal;font-stretch:normal;font-size:32px;font-family:sans-serif;-inkscape-font-specification:sans-serif"
       id="path833"
       inkscape:connector-curvature="0" />
    <path
       d="m 99.75,483.75256 h -9.1875 v -2.375 h 3.046875 V 462.86194 H 90.5625 v -2.375 H 99.75 v 2.375 h -3.046875 v 18.51562 H 99.75 Z"
       style="font-style:normal;font-variant:normal;font-weight:normal;font-stretch:normal;font-size:32px;font-family:sans-serif;-inkscape-font-specification:sans-serif"
       id="path835"
       inkscape:connector-curvature="0" />
    <path
       d="m 121.64063,463.23694 h -8.3125 v 20.51562 h -3.09375 v -20.51562 h -8.3125 v -2.75 h 19.71875 z"
       style="font-style:normal;font-variant:normal;font-weight:normal;font-stretch:normal;font-size:32px;font-family:sans-serif;-inkscape-font-specification:sans-serif"
       id="path837"
       inkscape:connector-curvature="0" />
    <path
       d="m 127.6875,470.75256 h -3.73437 v -4.45312 h 3.73437 z m 0,13 h -3.73437 v -4.45312 h 3.73437 z"
       style="font-style:normal;font-variant:normal;font-weight:normal;font-stretch:normal;font-size:32px;font-family:sans-serif;-inkscape-font-specification:sans-serif"
       id="path839"
       inkscape:connector-curvature="0" />
    <path
       d="m 162.59375,470.72131 q 0,3.04688 -0.70313,5.53125 -0.6875,2.48438 -2.09375,4.23438 -1.42187,1.78125 -3.5625,2.75 -2.14062,0.96875 -5.03125,0.96875 -0.8125,0 -1.53125,-0.0937 -0.71875,-0.0781 -1.28125,-0.26563 v -2.98437 h 0.15625 q 0.45313,0.23437 1.28125,0.45312 0.82813,0.20313 1.84375,0.20313 3.45313,0 5.40625,-2.0625 1.96875,-2.07813 2.28125,-5.71875 -1.45312,0.875 -2.73437,1.25 -1.28125,0.375 -2.79688,0.375 -1.4375,0 -2.60937,-0.28125 -1.15625,-0.28125 -2.32813,-1.09375 -1.375,-0.95313 -2.07812,-2.42188 -0.6875,-1.46875 -0.6875,-3.51562 0,-3.5625 2.34375,-5.79688 2.34375,-2.23437 5.71875,-2.23437 1.6875,0 3.125,0.53125 1.4375,0.51562 2.51562,1.5625 1.32813,1.29687 2.04688,3.34375 0.71875,2.03125 0.71875,5.26562 z m -3.15625,-0.67187 q 0,-2.42188 -0.5,-3.89063 -0.5,-1.46875 -1.375,-2.28125 -0.73438,-0.70312 -1.57813,-1 -0.84375,-0.3125 -1.82812,-0.3125 -2.25,0 -3.5625,1.40625 -1.29688,1.40625 -1.29688,3.95313 0,1.48437 0.42188,2.42187 0.42187,0.9375 1.42187,1.64063 0.70313,0.48437 1.54688,0.65625 0.84375,0.15625 1.875,0.15625 1.21875,0 2.46875,-0.32813 1.25,-0.32812 2.34375,-0.95312 0.0156,-0.32813 0.0312,-0.64063 0.0312,-0.32812 0.0312,-0.82812 z"
       style="font-style:normal;font-variant:normal;font-weight:normal;font-stretch:normal;font-size:32px;font-family:sans-serif;-inkscape-font-specification:sans-serif"
       id="path841"
       inkscape:connector-curvature="0" />
    <path
       d="m 182.96875,472.11194 q 0,6.26562 -1.96875,9.20312 -1.95313,2.92188 -6.07813,2.92188 -4.1875,0 -6.125,-2.96875 -1.92187,-2.96875 -1.92187,-9.125 0,-6.20313 1.95312,-9.15625 1.95313,-2.96875 6.09375,-2.96875 4.1875,0 6.10938,3.01562 1.9375,3 1.9375,9.07813 z m -4.10938,7.09375 q 0.54688,-1.26563 0.73438,-2.96875 0.20312,-1.71875 0.20312,-4.125 0,-2.375 -0.20312,-4.125 -0.1875,-1.75 -0.75,-2.96875 -0.54688,-1.20313 -1.5,-1.8125 -0.9375,-0.60938 -2.42188,-0.60938 -1.46875,0 -2.4375,0.60938 -0.95312,0.60937 -1.51562,1.84375 -0.53125,1.15625 -0.73438,3.01562 -0.1875,1.85938 -0.1875,4.07813 0,2.4375 0.17188,4.07812 0.17187,1.64063 0.73437,2.9375 0.51563,1.21875 1.45313,1.85938 0.95312,0.64062 2.51562,0.64062 1.46875,0 2.4375,-0.60937 0.96875,-0.60938 1.5,-1.84375 z"
       style="font-style:normal;font-variant:normal;font-weight:normal;font-stretch:normal;font-size:32px;font-family:sans-serif;-inkscape-font-specification:sans-serif"
       id="path843"
       inkscape:connector-curvature="0" />
    <path
       d="m 202.04687,483.75256 h -12.59375 v -2.375 h 4.84375 v -15.59375 h -4.84375 v -2.125 q 0.98438,0 2.10938,-0.15625 1.125,-0.17187 1.70312,-0.48437 0.71875,-0.39063 1.125,-0.98438 0.42188,-0.60937 0.48438,-1.625 h 2.42187 v 20.96875 h 4.75 z"
       style="font-style:normal;font-variant:normal;font-weight:normal;font-stretch:normal;font-size:32px;font-family:sans-serif;-inkscape-font-specification:sans-serif"
       id="path845"
       inkscape:connector-curvature="0" />
    <path
       d="m 221.70312,472.54944 q 0.75,0.67187 1.23438,1.6875 0.48437,1.01562 0.48437,2.625 0,1.59375 -0.57812,2.92187 -0.57813,1.32813 -1.625,2.3125 -1.17188,1.09375 -2.76563,1.625 -1.57812,0.51563 -3.46875,0.51563 -1.9375,0 -3.8125,-0.46875 -1.875,-0.45313 -3.07812,-1 v -3.26563 h 0.23437 q 1.32813,0.875 3.125,1.45313 1.79688,0.57812 3.46875,0.57812 0.98438,0 2.09375,-0.32812 1.10938,-0.32813 1.79688,-0.96875 0.71875,-0.6875 1.0625,-1.51563 0.35937,-0.82812 0.35937,-2.09375 0,-1.25 -0.40625,-2.0625 -0.39062,-0.82812 -1.09375,-1.29687 -0.70312,-0.48438 -1.70312,-0.65625 -1,-0.1875 -2.15625,-0.1875 h -1.40625 v -2.59375 h 1.09375 q 2.375,0 3.78125,-0.98438 1.42187,-1 1.42187,-2.90625 0,-0.84375 -0.35937,-1.46875 -0.35938,-0.64062 -1,-1.04687 -0.67188,-0.40625 -1.4375,-0.5625 -0.76563,-0.15625 -1.73438,-0.15625 -1.48437,0 -3.15625,0.53125 -1.67187,0.53125 -3.15625,1.5 h -0.15625 v -3.26563 q 1.10938,-0.54687 2.95313,-1 1.85937,-0.46875 3.59375,-0.46875 1.70312,0 3,0.3125 1.29687,0.3125 2.34375,1 1.125,0.75 1.70312,1.8125 0.57813,1.0625 0.57813,2.48438 0,1.9375 -1.375,3.39062 -1.35938,1.4375 -3.21875,1.8125 v 0.21875 q 0.75,0.125 1.71875,0.53125 0.96875,0.39063 1.64062,0.98438 z"
       style="font-style:normal;font-variant:normal;font-weight:normal;font-stretch:normal;font-size:32px;font-family:sans-serif;-inkscape-font-specification:sans-serif"
       id="path847"
       inkscape:connector-curvature="0" />
    <path
       d="m 244.29687,477.26819 q 0,3.01562 -2.35937,5.01562 -2.34375,2 -5.90625,2 -3.78125,0 -6.03125,-1.95312 -2.23438,-1.95313 -2.23438,-5 0,-1.9375 1.125,-3.5 1.125,-1.57813 3.17188,-2.5 v -0.0937 q -1.875,-1 -2.78125,-2.1875 -0.89063,-1.1875 -0.89063,-2.96875 0,-2.625 2.15625,-4.375 2.15625,-1.75 5.48438,-1.75 3.48437,0 5.5625,1.67187 2.07812,1.67188 2.07812,4.25 0,1.57813 -0.98437,3.10938 -0.98438,1.51562 -2.89063,2.375 v 0.0937 q 2.1875,0.9375 3.34375,2.3125 1.15625,1.375 1.15625,3.5 z m -3.70312,-11.35938 q 0,-1.67187 -1.29688,-2.65625 -1.28125,-1 -3.28125,-1 -1.96875,0 -3.23437,0.9375 -1.25,0.9375 -1.25,2.53125 0,1.125 0.625,1.95313 0.64062,0.8125 1.92187,1.45312 0.57813,0.28125 1.65625,0.73438 1.09375,0.45312 2.125,0.75 1.54688,-1.03125 2.14063,-2.14063 0.59375,-1.10937 0.59375,-2.5625 z m 0.48437,11.65625 q 0,-1.4375 -0.64062,-2.29687 -0.625,-0.875 -2.46875,-1.75 -0.73438,-0.34375 -1.60938,-0.64063 -0.875,-0.29687 -2.32812,-0.82812 -1.40625,0.76562 -2.26563,2.07812 -0.84375,1.3125 -0.84375,2.96875 0,2.10938 1.45313,3.48438 1.45312,1.375 3.6875,1.375 2.28125,0 3.64062,-1.17188 1.375,-1.17187 1.375,-3.21875 z"
       style="font-style:normal;font-variant:normal;font-weight:normal;font-stretch:normal;font-size:32px;font-family:sans-serif;-inkscape-font-specification:sans-serif"
       id="path849"
       inkscape:connector-curvature="0" />
    <path
       d="m 264.3125,476.36194 q 0,1.625 -0.59375,3.10937 -0.59375,1.48438 -1.625,2.5 -1.125,1.09375 -2.6875,1.6875 -1.54688,0.57813 -3.59375,0.57813 -1.90625,0 -3.67188,-0.40625 -1.76562,-0.39063 -2.98437,-0.95313 v -3.29687 h 0.21875 q 1.28125,0.8125 3,1.39062 1.71875,0.5625 3.375,0.5625 1.10937,0 2.14062,-0.3125 1.04688,-0.3125 1.85938,-1.09375 0.6875,-0.67187 1.03125,-1.60937 0.35937,-0.9375 0.35937,-2.17188 0,-1.20312 -0.42187,-2.03125 -0.40625,-0.82812 -1.14063,-1.32812 -0.8125,-0.59375 -1.98437,-0.82813 -1.15625,-0.25 -2.59375,-0.25 -1.375,0 -2.65625,0.1875 -1.26563,0.1875 -2.1875,0.375 v -11.98437 h 14 v 2.73437 h -10.98438 v 6.1875 q 0.67188,-0.0625 1.375,-0.0937 0.70313,-0.0312 1.21875,-0.0312 1.89063,0 3.3125,0.32813 1.42188,0.3125 2.60938,1.125 1.25,0.85937 1.9375,2.21875 0.6875,1.35937 0.6875,3.40625 z"
       style="font-style:normal;font-variant:normal;font-weight:normal;font-stretch:normal;font-size:32px;font-family:sans-serif;-inkscape-font-specification:sans-serif"
       id="path851"
       inkscape:connector-curvature="0" />
    <path
       d="m 285.21875,476.20569 q 0,3.54687 -2.34375,5.79687 -2.32813,2.23438 -5.71875,2.23438 -1.71875,0 -3.125,-0.53125 -1.40625,-0.53125 -2.48438,-1.57813 -1.34375,-1.29687 -2.07812,-3.4375 -0.71875,-2.14062 -0.71875,-5.15625 0,-3.09375 0.65625,-5.48437 0.67187,-2.39063 2.125,-4.25 1.375,-1.76563 3.54687,-2.75 2.17188,-1 5.0625,-1 0.92188,0 1.54688,0.0781 0.625,0.0781 1.26562,0.28125 v 2.98438 h -0.15625 q -0.4375,-0.23438 -1.32812,-0.4375 -0.875,-0.21875 -1.79688,-0.21875 -3.35937,0 -5.35937,2.10937 -2,2.09375 -2.32813,5.67188 1.3125,-0.79688 2.57813,-1.20313 1.28125,-0.42187 2.95312,-0.42187 1.48438,0 2.60938,0.28125 1.14062,0.26562 2.32812,1.09375 1.375,0.95312 2.0625,2.40625 0.70313,1.45312 0.70313,3.53125 z m -3.17188,0.125 q 0,-1.45313 -0.4375,-2.40625 -0.42187,-0.95313 -1.40625,-1.65625 -0.71875,-0.5 -1.59375,-0.65625 -0.875,-0.15625 -1.82812,-0.15625 -1.32813,0 -2.46875,0.3125 -1.14063,0.3125 -2.34375,0.96875 -0.0312,0.34375 -0.0469,0.67187 -0.0156,0.3125 -0.0156,0.79688 0,2.46875 0.5,3.90625 0.51562,1.42187 1.40625,2.25 0.71875,0.6875 1.54687,1.01562 0.84375,0.3125 1.82813,0.3125 2.26562,0 3.5625,-1.375 1.29687,-1.39062 1.29687,-3.98437 z"
       style="font-style:normal;font-variant:normal;font-weight:normal;font-stretch:normal;font-size:32px;font-family:sans-serif;-inkscape-font-specification:sans-serif"
       id="path853"
       inkscape:connector-curvature="0" />
    <path
       d="M 305.25,483.75256 H 289.5 v -3.26562 q 1.64062,-1.40625 3.28125,-2.8125 1.65625,-1.40625 3.07812,-2.79688 3,-2.90625 4.10938,-4.60937 1.10937,-1.71875 1.10937,-3.70313 0,-1.8125 -1.20312,-2.82812 -1.1875,-1.03125 -3.32813,-1.03125 -1.42187,0 -3.07812,0.5 -1.65625,0.5 -3.23438,1.53125 h -0.15625 v -3.28125 q 1.10938,-0.54688 2.95313,-1 1.85937,-0.45313 3.59375,-0.45313 3.57812,0 5.60937,1.73438 2.03125,1.71875 2.03125,4.67187 0,1.32813 -0.34375,2.48438 -0.32812,1.14062 -0.98437,2.17187 -0.60938,0.96875 -1.4375,1.90625 -0.8125,0.9375 -1.98438,2.07813 -1.67187,1.64062 -3.45312,3.1875 -1.78125,1.53125 -3.32813,2.84375 H 305.25 Z"
       style="font-style:normal;font-variant:normal;font-weight:normal;font-stretch:normal;font-size:32px;font-family:sans-serif;-inkscape-font-specification:sans-serif"
       id="path855"
       inkscape:connector-curvature="0" />
    <path
       d="m 325.59375,470.72131 q 0,3.04688 -0.70313,5.53125 -0.6875,2.48438 -2.09375,4.23438 -1.42187,1.78125 -3.5625,2.75 -2.14062,0.96875 -5.03125,0.96875 -0.8125,0 -1.53125,-0.0937 -0.71875,-0.0781 -1.28125,-0.26563 v -2.98437 h 0.15625 q 0.45313,0.23437 1.28125,0.45312 0.82813,0.20313 1.84375,0.20313 3.45313,0 5.40625,-2.0625 1.96875,-2.07813 2.28125,-5.71875 -1.45312,0.875 -2.73437,1.25 -1.28125,0.375 -2.79688,0.375 -1.4375,0 -2.60937,-0.28125 -1.15625,-0.28125 -2.32813,-1.09375 -1.375,-0.95313 -2.07812,-2.42188 -0.6875,-1.46875 -0.6875,-3.51562 0,-3.5625 2.34375,-5.79688 2.34375,-2.23437 5.71875,-2.23437 1.6875,0 3.125,0.53125 1.4375,0.51562 2.51562,1.5625 1.32813,1.29687 2.04688,3.34375 0.71875,2.03125 0.71875,5.26562 z m -3.15625,-0.67187 q 0,-2.42188 -0.5,-3.89063 -0.5,-1.46875 -1.375,-2.28125 -0.73438,-0.70312 -1.57813,-1 -0.84375,-0.3125 -1.82812,-0.3125 -2.25,0 -3.5625,1.40625 -1.29688,1.40625 -1.29688,3.95313 0,1.48437 0.42188,2.42187 0.42187,0.9375 1.42187,1.64063 0.70313,0.48437 1.54688,0.65625 0.84375,0.15625 1.875,0.15625 1.21875,0 2.46875,-0.32813 1.25,-0.32812 2.34375,-0.95312 0.0156,-0.32813 0.0312,-0.64063 0.0312,-0.32812 0.0312,-0.82812 z"
       style="font-style:normal;font-variant:normal;font-weight:normal;font-stretch:normal;font-size:32px;font-family:sans-serif;-inkscape-font-specification:sans-serif"
       id="path857"
       inkscape:connector-curvature="0" />
    <path
       d="m 339.875,474.98694 h -9.75 v -2.82813 h 9.75 z"
       style="font-style:normal;font-variant:normal;font-weight:normal;font-stretch:normal;font-size:32px;font-family:sans-serif;-inkscape-font-specification:sans-serif"
       id="path859"
       inkscape:connector-curvature="0" />
    <path
       d="m 360.5625,483.75256 h -15.75 v -3.26562 q 1.64062,-1.40625 3.28125,-2.8125 1.65625,-1.40625 3.07812,-2.79688 3,-2.90625 4.10938,-4.60937 1.10937,-1.71875 1.10937,-3.70313 0,-1.8125 -1.20312,-2.82812 -1.1875,-1.03125 -3.32813,-1.03125 -1.42187,0 -3.07812,0.5 -1.65625,0.5 -3.23438,1.53125 h -0.15625 v -3.28125 q 1.10938,-0.54688 2.95313,-1 1.85937,-0.45313 3.59375,-0.45313 3.57812,0 5.60937,1.73438 2.03125,1.71875 2.03125,4.67187 0,1.32813 -0.34375,2.48438 -0.32812,1.14062 -0.98437,2.17187 -0.60938,0.96875 -1.4375,1.90625 -0.8125,0.9375 -1.98438,2.07813 -1.67187,1.64062 -3.45312,3.1875 -1.78125,1.53125 -3.32813,2.84375 h 12.51563 z"
       style="font-style:normal;font-variant:normal;font-weight:normal;font-stretch:normal;font-size:32px;font-family:sans-serif;-inkscape-font-specification:sans-serif"
       id="path861"
       inkscape:connector-curvature="0" />
    <path
       d="m 382.39062,463.23694 h -8.3125 v 20.51562 h -3.09375 v -20.51562 h -8.3125 v -2.75 h 19.71875 z"
       style="font-style:normal;font-variant:normal;font-weight:normal;font-stretch:normal;font-size:32px;font-family:sans-serif;-inkscape-font-specification:sans-serif"
       id="path863"
       inkscape:connector-curvature="0" />
  </g>
</svg>
