<?xml version="1.0" encoding="UTF-8" standalone="no"?>
<!-- Created with Inkscape (http://www.inkscape.org/) -->

<svg
   xmlns:dc="http://purl.org/dc/elements/1.1/"
   xmlns:cc="http://creativecommons.org/ns#"
   xmlns:rdf="http://www.w3.org/1999/02/22-rdf-syntax-ns#"
   xmlns:svg="http://www.w3.org/2000/svg"
   xmlns="http://www.w3.org/2000/svg"
   xmlns:xlink="http://www.w3.org/1999/xlink"
   xmlns:sodipodi="http://sodipodi.sourceforge.net/DTD/sodipodi-0.dtd"
   xmlns:inkscape="http://www.inkscape.org/namespaces/inkscape"
   version="1.1"
   id="svg815"
   width="160"
   height="160"
   viewBox="0 0 160 160"
   sodipodi:docname="logoAJI2.svg"
   inkscape:version="0.92.4 (5da689c313, 2019-01-14)">
  <metadata
     id="metadata821">
    <rdf:RDF>
      <cc:Work
         rdf:about="">
        <dc:format>image/svg+xml</dc:format>
        <dc:type
           rdf:resource="http://purl.org/dc/dcmitype/StillImage" />
        <dc:title></dc:title>
      </cc:Work>
    </rdf:RDF>
  </metadata>
  <defs
     id="defs819">
    <clipPath
       clipPathUnits="userSpaceOnUse"
       id="clipPath839">
      <use
         x="0"
         y="0"
         xlink:href="#g835"
         id="use841"
         width="100%"
         height="100%" />
    </clipPath>
  </defs>
  <sodipodi:namedview
     pagecolor="#ffffff"
     bordercolor="#666666"
     borderopacity="1"
     objecttolerance="10"
     gridtolerance="10"
     guidetolerance="10"
     inkscape:pageopacity="0"
     inkscape:pageshadow="2"
     inkscape:window-width="1920"
     inkscape:window-height="1017"
     id="namedview817"
     showgrid="false"
     showguides="true"
     inkscape:zoom="0.99530519"
     inkscape:cx="99.551862"
     inkscape:cy="393.75221"
     inkscape:window-x="-8"
     inkscape:window-y="-8"
     inkscape:window-maximized="1"
     inkscape:current-layer="svg815"
     units="px"
     height="210mm">
    <inkscape:grid
       type="xygrid"
       id="grid1490" />
  </sodipodi:namedview>
  <flowRoot
     xml:space="preserve"
     id="flowRoot1414"
     style="font-style:normal;font-weight:normal;font-size:192px;line-height:1.25;font-family:sans-serif;letter-spacing:0px;word-spacing:0px;fill:#000000;fill-opacity:1;stroke:none"
     transform="translate(0,-692.0015)"><flowRegion
       id="flowRegion1416"
       style="font-size:192px"><rect
         id="rect1418"
         width="529.27942"
         height="248.65475"
         x="98.041023"
         y="518.09216"
         style="font-size:192px" /></flowRegion><flowPara
       id="flowPara1420" /></flowRoot>  <path
     style="fill:#d55300;fill-opacity:1;stroke:none;stroke-width:1.99999988;stroke-linecap:butt;stroke-linejoin:miter;stroke-miterlimit:4;stroke-dasharray:none;stroke-opacity:1"
     d="m 21.001887,27.896304 c 0,0 -5.058958,-10.96637 2.906463,-16.2845 5.6162,-3.74967 10.616599,1.25887 10.616599,1.25887 0,0 9.01537,-6.67805 10.456474,-2.51774 0.864695,2.49628 -8.202633,7.52628 -8.202633,7.52628 z"
     id="path1492"
     inkscape:connector-curvature="0"
     sodipodi:nodetypes="cscscc" />
  <path
     id="path1526"
     style="fill:#0000cb;fill-opacity:0.99607843;stroke:none;stroke-width:2;stroke-linecap:butt;stroke-linejoin:miter;stroke-miterlimit:4;stroke-dasharray:none;stroke-opacity:1"
     d="m 69.432633,59.281904 c 0,0 7.78256,2.77543 11.67384,2.77543 3.54872,0 10.64616,-2.77543 10.64616,-2.77543 m -22.32,0 c 0,0 -1.75208,6.0125 0,7.5128 3.69063,3.16029 16.47577,3.11222 21.70031,-0.0446 3.56551,-2.15453 0.61969,-7.46798 0.61969,-7.46798 0,0 0,-13.52308 -10.50353,-13.52308 -10.50353,0 -11.81647,10.51797 -11.81647,13.52308 z"
     inkscape:connector-curvature="0" />
  <path
     style="fill:#00c803;fill-opacity:1;stroke:none;stroke-width:0.99999994px;stroke-linecap:butt;stroke-linejoin:miter;stroke-opacity:1"
     d="m 86.455733,21.219554 c -1.31204,0.0209 -2.20744,0.46357 -2.5188,1.48259 -1.11726,3.65645 9.0092,8.67046 15.7594,15.81214 4.977207,5.26588 9.697307,12.93053 10.055357,23.89205 0.0728,2.2279 0.37912,6.47518 -0.77192,21.77141 -1.15223,15.31185 -3.62125,30.350036 0.47018,30.763626 4.79957,0.48518 13.45521,-27.806926 17.66283,-25.059596 3.20766,2.09442 8.15237,28.229986 14.4929,28.380946 6.74945,0.1607 1.35837,-45.742036 1.35837,-45.742036 -24.60729,5.73668 -17.88351,-4.19316 -7.69933,-9.51088 8.02267,-4.18907 7.99303,-12.71886 4.11028,-17.14442 -5.51042,-6.2808 -16.97663,-9.85844 -26.00023,-13.65236 -7.7237,-3.2474 -21.233527,-11.08391 -26.919037,-10.99347 z m 26.300827,20.24798 h 14.57854 v 2.96858 h -4.96727 v 17.8704 h 4.96727 v 2.90958 h -14.57854 v -2.90958 h 5.02626 v -17.8704 h -5.02626 z"
     id="path845-3"
     inkscape:connector-curvature="0" />
  <path
     style="fill:#00c803;fill-opacity:1;stroke:none;stroke-width:1.99999988;stroke-linecap:butt;stroke-linejoin:miter;stroke-miterlimit:4;stroke-dasharray:none;stroke-opacity:1"
     d="m 138.79768,26.128194 c 0,0 5.05896,-10.96636 -2.90646,-16.28449 -5.6162,-3.74967 -10.6166,1.25887 -10.6166,1.25887 0,0 -9.01537,-6.67806 -10.45647,-2.51774 -0.8647,2.49628 8.20263,7.52628 8.20263,7.52628 z"
     id="path1492-2"
     inkscape:connector-curvature="0"
     sodipodi:nodetypes="cscscc" />
  <g
     aria-label="A"
     transform="matrix(0.15308234,0,0,0.15308234,12.053894,-43.371906)"
     style="font-style:normal;font-weight:normal;font-size:40px;line-height:1.25;font-family:sans-serif;letter-spacing:0px;word-spacing:0px;fill:#d55300;fill-opacity:1;stroke:none;stroke-width:13.06486511;stroke-miterlimit:4;stroke-dasharray:none;stroke-opacity:1"
     id="flowRoot1422">
    <path
       id="path887"
       style="font-style:normal;font-variant:normal;font-weight:normal;font-stretch:normal;font-size:192px;font-family:Unispace;-inkscape-font-specification:Unispace;fill:#d55300;fill-opacity:1;stroke:none;stroke-width:13.06486511;stroke-miterlimit:4;stroke-dasharray:none;stroke-opacity:1"
       d="m 185.0562,677.01123 h -34.176 l -4.608,32.448 h -29.952 l 32.064,-155.136 h 39.168 l 32.256,155.136 h -29.76 z m -31.296,-19.392 h 28.416 l -12.672,-83.904 h -3.072 z M 32.543525,757.06095 c 0,0 -35.2147687,299.85885 8.875539,298.80905 41.419064,-0.9862 73.718296,-171.71802 94.672166,-185.39969 27.48593,-17.94673 84.02891,166.87339 115.38175,163.70399 26.72704,-2.7018 10.59694,-100.93885 3.07006,-200.96415 -7.51908,-99.92159 -5.5178,-127.66888 -5.04241,-142.2225 2.33896,-71.6054 33.17423,-121.67215 65.68754,-156.07113 44.09516,-46.65255 110.24565,-79.40565 102.94728,-103.2912 C 407.2876,396.12326 287.93051,467.6452 225.83259,493.75397 166.88658,518.53754 91.987418,541.90802 55.990969,582.93684 30.627215,611.84653 30.430538,667.56747 82.838147,694.93233 149.3656,729.66991 193.28903,794.53536 32.543525,757.06095 Z"
       inkscape:connector-curvature="0" />
  </g>
  <g
     aria-label=" I"
     transform="matrix(0.81001089,0,0,0.81001089,377.61634,-899.55276)"
     style="font-style:normal;font-weight:normal;font-size:40px;line-height:1.25;font-family:sans-serif;letter-spacing:0px;word-spacing:0px;fill:#d55300;fill-opacity:1;stroke:none;stroke-width:2.46910286;stroke-miterlimit:4;stroke-dasharray:none;stroke-opacity:1"
     id="flowRoot1422-2" />
  <g
     aria-label="J"
     transform="matrix(0.52715894,0,0,0.52715894,319.84512,-449.80665)"
     style="font-style:normal;font-weight:normal;font-size:40px;line-height:1.25;font-family:sans-serif;letter-spacing:0px;word-spacing:0px;fill:#00c803;fill-opacity:1;stroke:none;stroke-width:3.79392242;stroke-miterlimit:4;stroke-dasharray:none;stroke-opacity:1"
     id="flowRoot1422-7">
    <g
       id="g837"
       clip-path="url(#clipPath839)">
      <g
         inkscape:label="Clip"
         id="g835" />
    </g>
  </g>
  <path
     style="fill:#0000cb;fill-opacity:0.99588479;stroke:none;stroke-width:1px;stroke-linecap:butt;stroke-linejoin:miter;stroke-opacity:1"
     d="m 36.948565,68.857424 c -2.25707,-0.0223 -3.804434,0.75757 -4.387063,2.75078 -2.333031,7.98142 16.586452,12.78249 22.040808,22.19224 9.531313,16.443046 7.36044,19.519686 3.925385,33.212116 -2.008194,8.00486 -6.491396,21.58785 -0.150867,24.75812 6.340535,3.17026 13.968185,-29.14587 22.568845,-28.75895 7.45646,0.33543 16.22889,32.08008 22.569407,28.90982 6.34053,-3.17027 1.94337,-16.77534 -0.15087,-24.75813 -2.75795,-10.51274 -5.240067,-22.59478 2.86819,-33.362976 6.22848,-8.27191 23.59608,-16.42961 21.88994,-22.0408 -2.95261,-9.71054 -29.515497,9.54833 -47.176667,9.58631 -15.35968,0.0332 -35.142453,-12.40125 -43.997108,-12.48853 z m 39.925398,22.22741 h 10.22834 v 17.311486 c 0,0.88176 -0.10774,1.71404 -0.32328,2.49782 -0.21554,0.78378 -0.52888,1.46986 -0.94037,2.0577 -0.39189,0.58783 -0.87181,1.04851 -1.44005,1.38162 -0.54864,0.33311 -1.166,0.49968 -1.85181,0.49968 h -9.90506 v -2.91015 h 7.99427 c 0.31351,0 0.59772,-0.0978 0.85245,-0.2938 0.25473,-0.19594 0.47023,-0.46036 0.64658,-0.79347 0.17635,-0.33311 0.31379,-0.70527 0.41176,-1.11676 0.098,-0.43108 0.1469,-0.87196 0.1469,-1.32264 V 94.053404 h -5.81973 z"
     id="path825-2"
     inkscape:connector-curvature="0" />
</svg>
