<?xml version="1.0" encoding="UTF-8" standalone="no"?>
<!-- Created with Inkscape (http://www.inkscape.org/) -->

<svg
   xmlns:dc="http://purl.org/dc/elements/1.1/"
   xmlns:cc="http://creativecommons.org/ns#"
   xmlns:rdf="http://www.w3.org/1999/02/22-rdf-syntax-ns#"
   xmlns:svg="http://www.w3.org/2000/svg"
   xmlns="http://www.w3.org/2000/svg"
   xmlns:sodipodi="http://sodipodi.sourceforge.net/DTD/sodipodi-0.dtd"
   xmlns:inkscape="http://www.inkscape.org/namespaces/inkscape"
   version="1.1"
   id="svg907"
   width="450"
   height="450"
   viewBox="0 0 450 450"
   sodipodi:docname="logoAJI2.svg"
   inkscape:version="0.92.4 (5da689c313, 2019-01-14)">
  <metadata
     id="metadata913">
    <rdf:RDF>
      <cc:Work
         rdf:about="">
        <dc:format>image/svg+xml</dc:format>
        <dc:type
           rdf:resource="http://purl.org/dc/dcmitype/StillImage" />
        <dc:title></dc:title>
      </cc:Work>
    </rdf:RDF>
  </metadata>
  <defs
     id="defs911" />
  <sodipodi:namedview
     pagecolor="#ffffff"
     bordercolor="#666666"
     borderopacity="1"
     objecttolerance="10"
     gridtolerance="10"
     guidetolerance="10"
     inkscape:pageopacity="0"
     inkscape:pageshadow="2"
     inkscape:window-width="1920"
     inkscape:window-height="1017"
     id="namedview909"
     showgrid="false"
     inkscape:zoom="1.9742421"
     inkscape:cx="205.00393"
     inkscape:cy="216.59832"
     inkscape:window-x="-8"
     inkscape:window-y="-8"
     inkscape:window-maximized="1"
     inkscape:current-layer="svg907" />
  <path
     inkscape:connector-curvature="0"
     id="path1464"
     d="m 212.13837,382.88823 c -4.13759,-1.46215 -11.95195,-8.09779 -11.95195,-10.1491 0,-0.6298 8.55141,-0.98572 23.68277,-0.98572 h 23.68277 l -1.48903,2.87946 c -3.19002,6.16882 -11.91363,9.97547 -22.58942,9.85717 -3.86242,-0.0428 -8.96324,-0.76362 -11.33514,-1.60181 z m -28.22846,-24.36454 c -3.01967,-3.01967 -3.23431,-7.67428 -0.48085,-10.42774 1.90561,-1.90562 3.28575,-1.97146 41.329,-1.97146 h 39.35755 l 2.043,2.59726 c 2.54682,3.23776 2.59984,6.35367 0.1594,9.36871 l -1.8836,2.32708 -39.03609,0.27924 -39.03608,0.27923 z m 8.06245,-19.29929 c -6.14358,-0.39216 -8.0066,-0.88382 -9.11798,-2.40629 -1.83371,-2.51196 -1.77444,-6.47313 0.1377,-9.2031 l 1.5345,-2.19079 h 39.86605 c 38.55177,0 39.93107,0.065 41.83752,1.97146 2.47703,2.47702 2.54756,7.30972 0.1418,9.71547 -1.586,1.586 -4.18702,1.92414 -19.5311,2.53912 -17.51499,0.70199 -39.92435,0.52805 -54.86849,-0.42587 z m -7.9175,-24.71472 c -3.25442,-2.55993 -3.56096,-7.8363 -0.6258,-10.77146 1.90468,-1.90468 3.28575,-1.97146 40.77475,-1.97146 37.76366,0 38.87288,0.0547 41.40054,2.043 3.39523,2.67069 3.4703,7.03084 0.17774,10.3234 l -2.41951,2.41951 h -38.35524 c -37.31037,0 -38.42599,-0.0557 -40.95248,-2.04299 z m -2.18479,-23.55521 c -2.8219,-1.14158 -6.92107,-6.20783 -8.22872,-10.17007 -0.59707,-1.80913 -1.45457,-7.2881 -1.90554,-12.17546 -1.02036,-11.05777 -2.3177,-13.95646 -17.66847,-39.47707 -18.42028,-30.62368 -24.80646,-44.11897 -29.46775,-62.27137 -2.31545,-9.01697 -2.69015,-12.4247 -2.67072,-24.2887 0.0335,-20.49056 3.89444,-34.46099 14.43786,-52.242629 13.41964,-22.632458 35.03276,-38.26014 62.11273,-44.911522 10.65506,-2.617096 31.16547,-3.572937 42.1629,-1.9649 34.35313,5.023089 67.05957,28.71341 78.73715,57.031841 10.5096,25.48604 11.79295,53.25475 3.59839,77.86079 -3.41247,10.24672 -8.14295,19.39437 -19.22168,37.17024 -24.35106,39.07139 -25.23407,40.97829 -26.36715,56.9412 -0.69455,9.78501 -2.36931,13.33289 -8.12453,17.21132 l -3.32594,2.24135 -41.00833,-0.0625 c -22.5546,-0.0344 -41.93168,-0.43601 -43.0602,-0.89254 z m 15.91405,-58.31002 c 7.43798,-7.90919 19.91689,-7.8337 27.58192,0.16688 3.31233,3.45732 6.51911,3.711 11.1583,0.88267 2.83149,-1.72623 3.23457,-2.42909 2.75842,-4.80982 -0.81157,-4.05781 0.98863,-9.47424 4.46463,-13.43317 4.05748,-4.62122 6.19905,-5.69191 12.62549,-6.3122 5.2851,-0.51011 5.48329,-0.64026 7.87699,-5.17251 l 2.45548,-4.64923 -4.06538,-4.22232 c -5.25197,-5.4547 -6.43138,-7.87165 -6.43138,-13.17971 0,-4.49803 2.91105,-10.58008 5.5483,-11.59209 0.77066,-0.29574 2.10307,-1.60886 2.96089,-2.91808 1.44074,-2.19883 1.4102,-2.72912 -0.40039,-6.95306 -1.88935,-4.40769 -2.11018,-4.57269 -6.11967,-4.57269 -5.39862,0 -12.05338,-3.26885 -15.28786,-7.50947 -1.88519,-2.47162 -2.744,-5.0805 -3.23545,-9.82856 -0.71848,-6.94166 -1.21753,-7.59201 -7.25107,-9.44963 -3.58855,-1.10484 -3.86081,-1.02217 -6.63412,2.01422 -3.22337,3.52914 -10.00769,6.97852 -13.77407,7.0032 -4.95973,0.0325 -10.0771,-2.16414 -13.86419,-5.95122 -2.1334,-2.1334 -4.43337,-3.86917 -5.11106,-3.85726 -0.67769,0.0119 -3.11736,0.87738 -5.4215,1.92326 -4.13067,1.87498 -4.18934,1.97186 -4.18934,6.91772 0,9.82987 -6.80688,17.46067 -16.4929,18.48924 -5.52043,0.58622 -7.65998,2.18328 -9.20777,6.87313 -1.08535,3.28866 -0.97051,3.59655 2.80496,7.52019 5.01999,5.21699 6.13834,7.46541 6.13834,12.34084 0,5.36109 -1.10292,7.87711 -5.86488,13.37912 -4.34912,5.02501 -4.50012,6.59071 -1.09881,11.39304 1.43516,2.0263 2.83391,2.57013 7.86944,3.05957 9.14643,0.88903 14.60155,5.74237 15.49211,13.78314 0.83378,7.52805 1.30065,8.69858 4.06851,10.2004 4.30343,2.33502 7.43017,1.88401 10.64606,-1.5356 z m 3.83476,-24.84321 c -15.9824,-6.15797 -22.45686,-24.83922 -13.7549,-39.688 10.80738,-18.4414 38.65383,-17.42379 48.21448,1.76193 3.03607,6.0926 3.53364,16.9269 1.05033,22.8703 -2.23695,5.35378 -8.21595,11.44816 -13.77778,14.04366 -5.53459,2.58279 -16.34849,3.08642 -21.73213,1.01211 z m 54.1903,-74.62127 c 5.45693,-4.12893 7.1427,-3.8936 15.49649,2.16325 2.35834,1.7099 6.75321,-1.33044 6.75321,-4.67182 0,-5.65154 4.87605,-10.27847 10.83187,-10.27847 0.91637,0 2.19976,-1.17118 2.85198,-2.60263 1.01275,-2.22276 0.90995,-2.90616 -0.70432,-4.68221 -4.83713,-5.32184 -5.0052,-9.05495 -0.64115,-14.241337 2.16823,-2.576781 2.33503,-3.271157 1.32065,-5.497471 -0.66736,-1.464683 -1.97345,-2.548165 -3.07172,-2.548165 -5.58439,0 -10.58731,-4.902022 -10.58731,-10.373794 0,-3.248622 -4.43726,-6.255652 -6.75321,-4.576496 -8.13898,5.901106 -10.43903,6.131481 -16.33303,1.635904 -2.65978,-2.028716 -3.74443,-2.326317 -5.7288,-1.571871 -1.91674,0.728749 -2.56902,1.83434 -3.00648,5.095935 -0.68775,5.127487 -3.4026,7.993095 -8.85122,9.342704 -3.17173,0.785624 -4.38489,1.664203 -5.09803,3.691992 -0.79235,2.253018 -0.52905,3.085633 1.7172,5.430205 3.51719,3.671154 3.59242,8.786574 0.1887,12.831654 -1.35537,1.61077 -2.46431,3.49508 -2.46431,4.18736 0,2.26894 3.20761,4.86395 6.01216,4.86395 4.21361,0 7.80985,3.69278 8.48289,8.7106 0.41569,3.09923 1.14301,4.50211 2.64979,5.11104 2.87923,1.16358 2.63115,1.23585 6.93464,-2.02033 z m -1.42313,-14.58499 c -3.76459,-1.97067 -7.88497,-8.76924 -7.8488,-12.95039 0.0368,-4.2481 3.59859,-10.71299 7.06757,-12.827966 4.05229,-2.470617 12.62235,-2.691016 16.46121,-0.42334 1.46381,0.864689 3.69292,3.07748 4.95359,4.917301 3.14919,4.595935 2.64403,13.877355 -0.96557,17.741005 -5.18397,5.54882 -13.10937,6.97666 -19.668,3.54339 z M 84.965473,286.42857 c -3.478661,-2.9271 -4.677444,-7.53176 -3.064971,-11.7729 1.193943,-3.14031 27.484788,-30.36055 33.907698,-35.10635 4.55517,-3.36577 8.64248,-3.63392 13.184,-0.86497 3.52558,2.14955 5.15049,5.33592 5.15049,10.09989 0,2.66218 -2.28561,5.38012 -17.0038,20.22022 -9.35208,9.42955 -18.201599,17.77536 -19.665591,18.54623 -4.175088,2.19847 -9.085026,1.75798 -12.507826,-1.12212 z m 263.777117,-2.10729 c -11.17567,-10.08309 -29.49711,-28.53679 -30.83006,-31.05264 -4.44865,-8.39648 1.54464,-17.48084 10.72078,-16.25006 3.68207,0.49387 5.64235,2.15005 22.07668,18.65189 l 18.03581,18.10988 v 4.70463 c 0,3.88554 -0.50165,5.20627 -2.88136,7.58597 -2.35305,2.35306 -3.71631,2.88136 -7.43519,2.88136 -4.04006,0 -5.13292,-0.52248 -9.68666,-4.63103 z M 35.964248,153.51337 c -3.79646,-3.79646 -4.34897,-7.63193 -1.80741,-12.54677 2.707458,-5.23565 5.71017,-5.78776 31.477803,-5.78776 26.322823,0 28.931688,0.5144 31.663513,6.24308 2.218035,4.65127 1.172434,9.66604 -2.693706,12.91919 l -2.999293,2.52374 H 65.460433 39.315721 Z m 321.061322,1.97588 c -4.82454,-2.67403 -6.62778,-10.70071 -3.42972,-15.26657 3.16087,-4.51277 6.47546,-5.04384 31.48025,-5.04384 25.34832,0 28.37096,0.53787 31.03906,5.52324 2.93864,5.49091 0.59232,13.24466 -4.60595,15.22103 -4.00061,1.52104 -51.64105,1.14167 -54.48364,-0.43386 z M 117.87819,54.45875 C 116.25174,53.438749 107.54025,45.12333 98.519313,35.980049 80.725623,17.945002 79.57803,16.081366 82.281624,9.6107557 84.17975,5.0679031 89.06807,2.5525733 94.146922,3.5053675 c 2.937014,0.550992 6.673118,3.6818691 20.398608,17.0942575 9.24168,9.030861 17.43172,17.635462 18.20011,19.121348 2.96579,5.735208 0.609,12.836782 -5.04399,15.198752 -4.42859,1.850378 -6.2761,1.763683 -9.82346,-0.460975 z m 204.91132,0.445499 c -4.29896,-1.871009 -6.28726,-5.14591 -6.28726,-10.355647 v -4.433299 l 17.98952,-17.95619 C 345.83099,10.840914 353.4834,3.9579839 355.19205,3.5403017 c 3.87863,-0.948112 7.46681,0.2125918 10.72287,3.4686464 2.32475,2.3247393 2.83088,3.6701489 2.83088,7.5250519 v 4.694173 l -16.94274,17.043306 c -15.57296,15.665386 -21.04337,20.114003 -24.60678,20.0106 -0.7313,-0.02119 -2.71433,-0.641245 -4.40677,-1.37783 z"
     style="fill:#f51b01;fill-opacity:1;stroke-width:0.99999994"
     sodipodi:nodetypes="csscsccssscsscccsscccscssscsscccsccccsscssssssscccccscscccscssccsscscscscsssssssccscscsscscsssscccsssscccccscssccssccsscssscssscssssscscssssscscccssssccscsscscsccscsccscscc" />
  <path
     sodipodi:nodetypes="ssccsccccassssccssaaaaaccccccaascccscccccaaaacs"
     inkscape:connector-curvature="0"
     id="path876"
     d="m 230.68348,167.29396 c 4.70301,-1.12419 7.44408,-1.65673 14.12332,-3.31217 6.67924,-1.65545 13.49852,-3.33539 15.15396,-3.7332 1.65544,-0.39781 5.40623,-1.33565 8.33508,-2.08407 2.92885,-0.74844 8.86758,-2.20817 13.19718,-3.24387 9.09075,-2.17461 8.6066,-2.21851 16.12107,1.46197 9.24869,4.52433 19.70501,8.88625 27.07886,13.98436 0.35347,0.28924 0.74272,0.31765 0.95089,0.0694 4.17768,-12.52626 6.29555,-26.85442 7.45276,-38.39116 0.30005,-7.08147 0.90787,-13.18972 -0.17661,-19.64938 -1.35843,-8.09144 -3.50791,-16.58141 -7.82866,-23.335845 -0.93028,-1.45426 -1.69142,-2.750645 -1.69142,-2.880843 0,-0.130199 -1.54909,-2.262019 -3.44243,-4.737372 -3.29932,-4.313537 -11.3029,-12.48789 -14.60777,-14.919464 -0.86538,-0.636711 -2.39834,-1.844155 -3.40658,-2.683215 -1.00825,-0.839061 -2.79214,-2.079334 -3.96422,-2.756172 -1.17207,-0.676838 -2.86035,-1.785086 -3.75175,-2.462778 -2.35767,-1.792467 -16.10312,-8.787789 -21.76379,-11.076013 -13.95025,-5.63914 -27.27795,-8.042946 -41.31285,-9.964918 -4.17488,-0.571719 -8.42051,-0.52953 -12.63358,-0.448755 -1.54747,0.02965 -3.10155,0.102716 -4.6306,0.342581 -12.31563,1.931991 -24.79992,4.103577 -36.35016,8.793914 -5.15074,2.091623 -9.97658,5.064462 -14.35483,8.490257 -4.63783,3.628915 -8.64061,8.694419 -12.38684,12.596549 -3.73921,3.836528 -10.92061,14.036722 -14.47413,20.558451 -2.03195,3.729235 -6.8103,13.394923 -7.43761,15.044823 -0.42092,1.1071 -0.54048,1.14622 -5.98759,1.95959 -1.91012,0.28522 -5.03577,0.94454 -6.94589,1.46516 -13.97717,4.29567 -27.752359,8.98052 -40.517707,16.06849 -4.218195,2.36691 -7.750997,4.16946 -9.499852,7.89763 -0.750918,1.60078 -0.597209,3.64022 0,5.30447 1.961995,5.4675 4.964878,8.84394 11.08018,13.45054 9.667941,7.28276 20.209536,12.58976 31.884199,16.05163 4.60753,1.36625 15.74794,3.00409 16.03138,2.7099 0.0867,-0.09 -3.38606,-13.08426 -2.59335,-23.11163 0.79275,-10.02738 2.07849,-13.69817 2.21666,-13.92176 0.13818,-0.2236 0.6036,-0.40503 1.03429,-0.40318 1.07601,0.005 10.85986,3.34543 13.98884,4.77665 1.40483,0.64258 3.64965,1.60011 4.98855,2.12784 2.46213,0.9705 17.06971,8.16251 17.92429,8.82499 0.25468,0.19744 1.92169,1.14371 3.70447,2.10283 1.78278,0.95911 2.63569,1.52358 3.93599,2.3147 2.0301,1.23515 4.06399,2.46755 6.03417,3.79619 4.32708,2.91809 8.38476,6.22168 12.69664,9.16219 2.68647,1.83205 5.06308,4.43345 8.20264,5.28003 10.83214,2.92091 22.4594,1.21181 33.6228,-1.51937 z"
     style="fill:#008740;fill-opacity:1;stroke:none;stroke-width:1" />
  <path
     style="opacity:0.5;fill:#fffcff;fill-opacity:1;fill-rule:nonzero;stroke:none;stroke-width:2;stroke-linecap:round;stroke-linejoin:round;stroke-miterlimit:4;stroke-dasharray:none;stroke-opacity:1;paint-order:fill markers stroke"
     d="m 269.08888,144.22267 c 1.19812,-1.40853 8.08237,-19.16062 9.6023,-24.761 0.83766,-3.08645 1.4651,-7.06953 1.65105,-10.48086 0.66304,-12.164831 -1.9453,-19.640703 -9.41058,-26.971961 -5.71735,-5.614712 -14.45377,-11.366587 -24.99424,-16.455692 -9.96267,-4.810127 -18.56065,-7.824773 -28.12152,-9.860043 -6.19158,-1.318034 -7.68715,-1.433776 -18.78029,-1.453413 -9.9363,-0.01757 -12.78922,0.149343 -16.24532,0.950574 -15.77128,3.656266 -27.67552,14.416909 -39.52831,35.730958 -3.19706,5.749036 -4.57399,8.9808 -4.04974,9.505047 0.15619,0.15618 3.77592,0.73224 8.04388,1.28012 31.22625,4.00858 65.49471,16.05812 112.21489,39.4572 4.36648,2.18688 8.14128,3.97615 8.38843,3.97615 0.24715,0 0.80041,-0.41268 1.22945,-0.91708 z"
     id="path901"
     inkscape:connector-curvature="0" />
  <flowRoot
     xml:space="preserve"
     id="flowRoot1498"
     style="font-style:normal;font-weight:normal;font-size:40px;line-height:1.25;font-family:sans-serif;letter-spacing:0px;word-spacing:0px;fill:#000000;fill-opacity:1;stroke:none"
     transform="translate(0,-100)"><flowRegion
       id="flowRegion1500"><rect
         id="rect1502"
         width="559.2019"
         height="217.8051"
         x="-108.39603"
         y="311.93396" /></flowRegion><flowPara
       id="flowPara1504"></flowPara></flowRoot>  <flowRoot
     xml:space="preserve"
     id="flowRoot1506"
     style="font-style:normal;font-weight:normal;font-size:40px;line-height:1.25;font-family:sans-serif;letter-spacing:0px;word-spacing:0px;fill:#000000;fill-opacity:1;stroke:none"
     transform="translate(0,-100)"><flowRegion
       id="flowRegion1508"><rect
         id="rect1510"
         width="319.1098"
         height="201.59634"
         x="-49.639301"
         y="292.68607" /></flowRegion><flowPara
       id="flowPara1512" /></flowRoot>  <g
     aria-label="INNOVADOS"
     transform="matrix(0.98572734,0,0,0.98572734,66.556818,129.37283)"
     style="font-style:normal;font-weight:normal;font-size:64px;line-height:1.25;font-family:sans-serif;letter-spacing:0px;word-spacing:0px;fill:#008740;fill-opacity:1;stroke:none;stroke-width:1.01447928"
     id="flowRoot1514">
    <path
       d="m 28.300203,272.01112 v 6.464 h -10.816 v 38.912 h 10.816 v 6.336 H -3.4437969 v -6.336 h 10.944 v -38.912 h -10.944 v -6.464 z"
       style="font-style:normal;font-variant:normal;font-weight:normal;font-stretch:normal;font-size:64px;font-family:Unispace;-inkscape-font-specification:Unispace;fill:#008740;fill-opacity:1;stroke-width:1.01447928"
       id="path2109"
       inkscape:connector-curvature="0" />
    <path
       d="m 44.769203,272.01112 15.616,38.912 v -38.912 h 7.808 v 51.712 h -11.2 l -14.336,-34.688 v 34.688 h -7.744 v -51.712 z"
       style="font-style:normal;font-variant:normal;font-weight:normal;font-stretch:normal;font-size:64px;font-family:Unispace;-inkscape-font-specification:Unispace;fill:#008740;fill-opacity:1;stroke-width:1.01447928"
       id="path2111"
       inkscape:connector-curvature="0" />
    <path
       d="m 83.894203,272.01112 15.616,38.912 v -38.912 h 7.807997 v 51.712 H 96.118203 l -14.336,-34.688 v 34.688 h -7.744 v -51.712 z"
       style="font-style:normal;font-variant:normal;font-weight:normal;font-stretch:normal;font-size:64px;font-family:Unispace;-inkscape-font-specification:Unispace;fill:#008740;fill-opacity:1;stroke-width:1.01447928"
       id="path2113"
       inkscape:connector-curvature="0" />
    <path
       d="m 136.9712,272.01112 q 2.176,0 4.032,1.088 1.856,1.088 3.136,3.008 1.28,1.92 1.984,4.544 0.768,2.56 0.768,5.568 v 23.488 q 0,2.88 -0.704,5.44 -0.704,2.56 -1.984,4.48 -1.28,1.856 -3.136,3.008 -1.792,1.088 -4.096,1.088 h -14.208 q -2.24,0 -4.096,-1.088 -1.792,-1.088 -3.136,-3.008 -1.28,-1.92 -1.984,-4.48 -0.704,-2.56 -0.704,-5.44 v -23.488 q 0,-3.008 0.704,-5.568 0.704,-2.624 1.984,-4.544 1.344,-1.92 3.136,-3.008 1.856,-1.088 4.096,-1.088 z m -14.592,37.696 q 0,1.472 0.32,2.88 0.32,1.344 0.896,2.432 0.576,1.088 1.408,1.728 0.896,0.64 1.984,0.64 h 5.76 q 1.088,0 1.92,-0.64 0.896,-0.64 1.472,-1.664 0.576,-1.088 0.896,-2.432 0.32,-1.408 0.32,-2.944 v -23.488 q 0,-1.6 -0.32,-3.008 -0.32,-1.408 -0.96,-2.432 -0.576,-1.088 -1.472,-1.664 -0.832,-0.64 -1.856,-0.64 h -5.76 q -1.088,0 -1.92,0.64 -0.832,0.64 -1.472,1.728 -0.576,1.024 -0.896,2.432 -0.32,1.408 -0.32,2.944 z"
       style="font-style:normal;font-variant:normal;font-weight:normal;font-stretch:normal;font-size:64px;font-family:Unispace;-inkscape-font-specification:Unispace;fill:#008740;fill-opacity:1;stroke-width:1.01447928"
       id="path2115"
       inkscape:connector-curvature="0" />
    <path
       d="m 161.3122,272.01112 7.04,41.344 h 1.024 l 8,-41.344 h 9.088 l -11.904,51.712 h -12.16 l -10.944,-51.712 z"
       style="font-style:normal;font-variant:normal;font-weight:normal;font-stretch:normal;font-size:64px;font-family:Unispace;-inkscape-font-specification:Unispace;fill:#008740;fill-opacity:1;stroke-width:1.01447928"
       id="path2117"
       inkscape:connector-curvature="0" />
    <path
       d="m 213.7492,312.90712 h -11.392 l -1.536,10.816 h -9.984 l 10.688,-51.712 h 13.056 l 10.752,51.712 h -9.92 z m -10.432,-6.464 h 9.472 l -4.224,-27.968 h -1.024 z"
       style="font-style:normal;font-variant:normal;font-weight:normal;font-stretch:normal;font-size:64px;font-family:Unispace;-inkscape-font-specification:Unispace;fill:#008740;fill-opacity:1;stroke-width:1.01447928"
       id="path2119"
       inkscape:connector-curvature="0" />
    <path
       d="m 253.9622,272.01112 q 2.176,0 3.968,1.088 1.792,1.088 3.072,3.008 1.28,1.92 1.984,4.544 0.768,2.56 0.768,5.568 v 23.488 q 0,2.944 -0.704,5.504 -0.704,2.56 -1.984,4.48 -1.28,1.856 -3.136,2.944 -1.792,1.088 -3.968,1.088 h -23.232 v -51.712 z m -13.312,45.376 h 9.088 q 1.024,0 1.856,-0.64 0.896,-0.64 1.472,-1.728 0.64,-1.088 0.96,-2.432 0.32,-1.408 0.32,-2.88 v -23.488 q 0,-1.536 -0.32,-2.944 -0.32,-1.408 -0.96,-2.432 -0.576,-1.088 -1.472,-1.728 -0.832,-0.64 -1.856,-0.64 h -9.088 z"
       style="font-style:normal;font-variant:normal;font-weight:normal;font-stretch:normal;font-size:64px;font-family:Unispace;-inkscape-font-specification:Unispace;fill:#008740;fill-opacity:1;stroke-width:1.01447928"
       id="path2121"
       inkscape:connector-curvature="0" />
    <path
       d="m 293.4712,272.01112 q 2.176,0 4.032,1.088 1.856,1.088 3.136,3.008 1.28,1.92 1.984,4.544 0.768,2.56 0.768,5.568 v 23.488 q 0,2.88 -0.704,5.44 -0.704,2.56 -1.984,4.48 -1.28,1.856 -3.136,3.008 -1.792,1.088 -4.096,1.088 h -14.208 q -2.24,0 -4.096,-1.088 -1.792,-1.088 -3.136,-3.008 -1.28,-1.92 -1.984,-4.48 -0.704,-2.56 -0.704,-5.44 v -23.488 q 0,-3.008 0.704,-5.568 0.704,-2.624 1.984,-4.544 1.344,-1.92 3.136,-3.008 1.856,-1.088 4.096,-1.088 z m -14.592,37.696 q 0,1.472 0.32,2.88 0.32,1.344 0.896,2.432 0.576,1.088 1.408,1.728 0.896,0.64 1.984,0.64 h 5.76 q 1.088,0 1.92,-0.64 0.896,-0.64 1.472,-1.664 0.576,-1.088 0.896,-2.432 0.32,-1.408 0.32,-2.944 v -23.488 q 0,-1.6 -0.32,-3.008 -0.32,-1.408 -0.96,-2.432 -0.576,-1.088 -1.472,-1.664 -0.832,-0.64 -1.856,-0.64 h -5.76 q -1.088,0 -1.92,0.64 -0.832,0.64 -1.472,1.728 -0.576,1.024 -0.896,2.432 -0.32,1.408 -0.32,2.944 z"
       style="font-style:normal;font-variant:normal;font-weight:normal;font-stretch:normal;font-size:64px;font-family:Unispace;-inkscape-font-specification:Unispace;fill:#008740;fill-opacity:1;stroke-width:1.01447928"
       id="path2123"
       inkscape:connector-curvature="0" />
    <path
       d="m 339.6362,272.01112 v 6.464 h -16.832 q -1.088,0 -1.92,0.576 -0.832,0.576 -1.408,1.6 -0.576,1.024 -0.896,2.368 -0.256,1.28 -0.256,2.752 0,3.328 1.216,5.376 1.216,2.048 3.264,2.048 h 8.64 q 2.624,0 4.608,1.088 1.984,1.088 3.328,3.008 1.344,1.92 1.984,4.608 0.704,2.624 0.704,5.76 0,3.392 -0.768,6.336 -0.704,2.88 -2.048,5.056 -1.344,2.176 -3.2,3.456 -1.856,1.216 -4.096,1.216 h -21.376 v -6.336 h 17.216 q 1.152,0 2.048,-0.64 0.896,-0.704 1.536,-1.856 0.64,-1.152 0.96,-2.688 0.32,-1.6 0.32,-3.392 0,-2.112 -0.384,-3.584 -0.32,-1.472 -1.216,-2.304 -0.832,-0.896 -2.24,-1.28 -1.408,-0.384 -3.584,-0.384 h -5.568 q -2.624,0 -4.672,-1.024 -2.048,-1.088 -3.456,-2.944 -1.344,-1.92 -2.048,-4.544 -0.704,-2.624 -0.704,-5.824 0,-3.072 0.704,-5.76 0.704,-2.752 1.984,-4.736 1.28,-2.048 3.072,-3.2 1.856,-1.216 4.096,-1.216 z"
       style="font-style:normal;font-variant:normal;font-weight:normal;font-stretch:normal;font-size:64px;font-family:Unispace;-inkscape-font-specification:Unispace;fill:#008740;fill-opacity:1;stroke-width:1.01447928"
       id="path2125"
       inkscape:connector-curvature="0" />
  </g>
</svg>
