<?xml version="1.0" encoding="UTF-8" standalone="no"?>
<!-- Created with Inkscape (http://www.inkscape.org/) -->

<svg
   xmlns:dc="http://purl.org/dc/elements/1.1/"
   xmlns:cc="http://creativecommons.org/ns#"
   xmlns:rdf="http://www.w3.org/1999/02/22-rdf-syntax-ns#"
   xmlns:svg="http://www.w3.org/2000/svg"
   xmlns="http://www.w3.org/2000/svg"
   xmlns:sodipodi="http://sodipodi.sourceforge.net/DTD/sodipodi-0.dtd"
   xmlns:inkscape="http://www.inkscape.org/namespaces/inkscape"
   version="1.1"
   id="svg815"
   width="210mm"
   height="210mm"
   viewBox="0 0 793.70079 793.7008"
   sodipodi:docname="logoAJI1.svg"
   inkscape:version="0.92.4 (5da689c313, 2019-01-14)">
  <metadata
     id="metadata821">
    <rdf:RDF>
      <cc:Work
         rdf:about="">
        <dc:format>image/svg+xml</dc:format>
        <dc:type
           rdf:resource="http://purl.org/dc/dcmitype/StillImage" />
        <dc:title />
      </cc:Work>
    </rdf:RDF>
  </metadata>
  <defs
     id="defs819" />
  <sodipodi:namedview
     pagecolor="#ffffff"
     bordercolor="#666666"
     borderopacity="1"
     objecttolerance="10"
     gridtolerance="10"
     guidetolerance="10"
     inkscape:pageopacity="0"
     inkscape:pageshadow="2"
     inkscape:window-width="1920"
     inkscape:window-height="1017"
     id="namedview817"
     showgrid="false"
     showguides="true"
     inkscape:zoom="0.99530519"
     inkscape:cx="341.50094"
     inkscape:cy="386.08996"
     inkscape:window-x="-8"
     inkscape:window-y="-8"
     inkscape:window-maximized="1"
     inkscape:current-layer="svg815"
     units="mm"
     height="210mm">
    <inkscape:grid
       type="xygrid"
       id="grid1490" />
  </sodipodi:namedview>
  <path
     style="fill:#00c803;fill-opacity:1;stroke:none;stroke-width:0.99999982px;stroke-linecap:butt;stroke-linejoin:miter;stroke-opacity:1"
     d="m 718.10196,348.19983 c 0,0 27.11917,230.92355 -6.8351,230.11512 -31.89714,-0.75945 -56.77103,-132.24134 -72.90776,-142.77771 -21.16712,-13.8209 -64.71129,128.51046 -88.85633,126.06968 -20.5827,-2.08066 -8.1608,-77.73376 -2.36428,-154.76402 5.7905,-76.95037 4.24929,-98.31875 3.88318,-109.5266 -1.80123,-55.14387 -25.54771,-93.70066 -50.58645,-120.19157 -33.95803,-35.92749 -84.90101,-61.15088 -79.28048,-79.545338 8.35401,-27.340393 100.27181,27.739178 148.09387,47.845758 45.39479,19.08601 103.07517,37.08378 130.79629,68.6804 19.53285,22.26357 19.6843,65.17469 -20.6752,86.24856 -51.23329,26.75169 -85.05905,76.70506 38.73226,47.84572 z"
     id="path845-3"
     inkscape:connector-curvature="0"
     sodipodi:nodetypes="csssssssassc" />
  <path
     style="fill:#00c803;fill-opacity:1;stroke:none;stroke-width:1.99999964;stroke-linecap:butt;stroke-linejoin:miter;stroke-miterlimit:4;stroke-dasharray:none;stroke-opacity:1"
     d="m 697.14199,117.66123 c 0,0 25.44998,-55.16823 -14.62147,-81.922013 -28.25329,-18.863362 -53.40866,6.332978 -53.40866,6.332978 0,0 -45.35342,-33.595121 -52.60313,-12.665948 -4.35001,12.558004 41.26478,37.862289 41.26478,37.862289 z"
     id="path1492-2"
     inkscape:connector-curvature="0"
     sodipodi:nodetypes="cscscc" />
  <flowRoot
     xml:space="preserve"
     id="flowRoot1414"
     style="font-style:normal;font-weight:normal;font-size:192px;line-height:1.25;font-family:sans-serif;letter-spacing:0px;word-spacing:0px;fill:#000000;fill-opacity:1;stroke:none"
     transform="translate(0,-58.299208)"><flowRegion
       id="flowRegion1416"
       style="font-size:192px"><rect
         id="rect1418"
         width="529.27942"
         height="248.65475"
         x="98.041023"
         y="518.09216"
         style="font-size:192px" /></flowRegion><flowPara
       id="flowPara1420" /></flowRoot>  <path
     style="opacity:1;fill:#d55300;fill-opacity:1;stroke:none;stroke-width:0.99999982px;stroke-linecap:butt;stroke-linejoin:miter;stroke-opacity:1"
     d="m 94.871421,345.17612 c 0,0 -27.119167,230.92355 6.835109,230.11511 31.89713,-0.75946 56.77102,-132.24135 72.90775,-142.7777 21.16712,-13.82091 64.7113,128.51045 88.85636,126.06966 20.5827,-2.08066 8.16078,-77.73376 2.36428,-154.764 -5.7905,-76.95037 -4.2493,-98.31877 -3.8832,-109.52662 1.80125,-55.14386 25.54773,-93.70064 50.58647,-120.19155 33.95802,-35.92749 84.90101,-61.1509 79.28048,-79.54534 -8.35401,-27.340407 -100.27181,27.73918 -148.09389,47.84574 -45.39477,19.08601 -103.07517,37.0838 -130.7963,68.68041 -19.532829,22.26357 -19.684295,65.17468 20.6752,86.24857 51.23329,26.75168 85.05906,76.70505 -38.732259,47.84572 z"
     id="path845"
     inkscape:connector-curvature="0"
     sodipodi:nodetypes="csssssssassc" />
  <path
     style="fill:#d55300;fill-opacity:1;stroke:none;stroke-width:1.99999964;stroke-linecap:butt;stroke-linejoin:miter;stroke-miterlimit:4;stroke-dasharray:none;stroke-opacity:1"
     d="m 114.82384,120.68496 c 0,0 -25.449979,-55.168219 14.62146,-81.922002 28.25329,-18.863372 53.40867,6.332977 53.40867,6.332977 0,0 45.35341,-33.595128 52.60313,-12.665955 4.35,12.557997 -41.26478,37.862296 -41.26478,37.862296 z"
     id="path1492"
     inkscape:connector-curvature="0"
     sodipodi:nodetypes="cscscc" />
  <path
     id="path825-2"
     style="fill:#0000cb;fill-opacity:0.99588479;stroke:none;stroke-width:1px;stroke-linecap:butt;stroke-linejoin:miter;stroke-opacity:1"
     d="m 294.03782,746.79313 c -31.89713,-15.94857 -9.34313,-84.28093 0.75943,-124.55082 17.28065,-68.88216 28.20311,-84.35939 -19.74584,-167.0803 -27.4391,-47.33741 -122.61728,-71.48804 -110.88056,-111.63996 14.42968,-49.36467 146.43983,49.19474 243.40559,48.98505 88.84763,-0.19108 222.47636,-97.0761 237.32996,-48.22556 8.58305,28.22807 -78.78763,69.26715 -110.12109,110.88047 -40.78999,54.17259 -28.30406,114.95359 -14.42968,167.83981 10.53541,40.1588 32.65661,108.60224 0.75948,124.5508 -31.89714,15.94856 -76.02763,-143.7483 -113.53867,-145.43568 -43.26712,-1.9465 -81.64147,160.62475 -113.53862,144.67619 z"
     inkscape:connector-curvature="0"
     sodipodi:nodetypes="sssssssssss" />
  <path
     id="path1526"
     style="fill:#0000cb;fill-opacity:0.99607843;stroke:none;stroke-width:1.99999988;stroke-linecap:butt;stroke-linejoin:miter;stroke-miterlimit:4;stroke-dasharray:none;stroke-opacity:1"
     d="m 349.65667,281.51123 c 0,0 39.15156,13.96231 58.72734,13.96231 17.85246,0 53.55738,-13.96231 53.55738,-13.96231 m -112.28472,0 c 0,0 -8.81412,30.24693 0,37.79447 18.5664,15.89838 82.88428,15.65659 109.16722,-0.22421 17.93695,-10.83874 3.1175,-37.56899 3.1175,-37.56899 0,0 0,-68.03019 -52.83989,-68.03019 -52.83985,0 -59.44483,52.91246 -59.44483,68.03019 z"
     inkscape:connector-curvature="0" />
</svg>
