<?xml version="1.0" encoding="UTF-8" standalone="no"?>
<!-- Created with Inkscape (http://www.inkscape.org/) -->

<svg
   xmlns:dc="http://purl.org/dc/elements/1.1/"
   xmlns:cc="http://creativecommons.org/ns#"
   xmlns:rdf="http://www.w3.org/1999/02/22-rdf-syntax-ns#"
   xmlns:svg="http://www.w3.org/2000/svg"
   xmlns="http://www.w3.org/2000/svg"
   xmlns:sodipodi="http://sodipodi.sourceforge.net/DTD/sodipodi-0.dtd"
   xmlns:inkscape="http://www.inkscape.org/namespaces/inkscape"
   version="1.1"
   id="svg907"
   width="450"
   height="490"
   viewBox="0 0 450 490"
   sodipodi:docname="logoAJI2.svg"
   inkscape:version="0.92.4 (5da689c313, 2019-01-14)">
  <metadata
     id="metadata913">
    <rdf:RDF>
      <cc:Work
         rdf:about="">
        <dc:format>image/svg+xml</dc:format>
        <dc:type
           rdf:resource="http://purl.org/dc/dcmitype/StillImage" />
        <dc:title></dc:title>
      </cc:Work>
    </rdf:RDF>
  </metadata>
  <defs
     id="defs911" />
  <sodipodi:namedview
     pagecolor="#ffffff"
     bordercolor="#666666"
     borderopacity="1"
     objecttolerance="10"
     gridtolerance="10"
     guidetolerance="10"
     inkscape:pageopacity="0"
     inkscape:pageshadow="2"
     inkscape:window-width="1920"
     inkscape:window-height="1017"
     id="namedview909"
     showgrid="false"
     inkscape:zoom="0.98712105"
     inkscape:cx="464.06674"
     inkscape:cy="130.63843"
     inkscape:window-x="-8"
     inkscape:window-y="-8"
     inkscape:window-maximized="1"
     inkscape:current-layer="svg907" />
  <path
     inkscape:connector-curvature="0"
     id="path1464"
     d="m 213.93122,388.88823 c -4.13759,-1.46215 -11.95195,-8.09779 -11.95195,-10.1491 0,-0.6298 8.55141,-0.98572 23.68277,-0.98572 h 23.68277 l -1.48903,2.87946 c -3.19002,6.16882 -11.91363,9.97547 -22.58942,9.85717 -3.86242,-0.0428 -8.96324,-0.76362 -11.33514,-1.60181 z m -28.22846,-24.36454 c -3.01967,-3.01967 -3.23431,-7.67428 -0.48085,-10.42774 1.90561,-1.90562 3.28575,-1.97146 41.329,-1.97146 h 39.35755 l 2.043,2.59726 c 2.54682,3.23776 2.59984,6.35367 0.1594,9.36871 l -1.8836,2.32708 -39.03609,0.27924 -39.03608,0.27923 z m 8.06245,-19.29929 c -6.14358,-0.39216 -8.0066,-0.88382 -9.11798,-2.40629 -1.83371,-2.51196 -1.77444,-6.47313 0.1377,-9.2031 l 1.5345,-2.19079 h 39.86605 c 38.55177,0 39.93107,0.065 41.83752,1.97146 2.47703,2.47702 2.54756,7.30972 0.1418,9.71547 -1.586,1.586 -4.18702,1.92414 -19.5311,2.53912 -17.51499,0.70199 -39.92435,0.52805 -54.86849,-0.42587 z m -7.9175,-24.71472 c -3.25442,-2.55993 -3.56096,-7.8363 -0.6258,-10.77146 1.90468,-1.90468 3.28575,-1.97146 40.77475,-1.97146 37.76366,0 38.87288,0.0547 41.40054,2.043 3.39523,2.67069 3.4703,7.03084 0.17774,10.3234 l -2.41951,2.41951 h -38.35524 c -37.31037,0 -38.42599,-0.0557 -40.95248,-2.04299 z m -2.18479,-23.55521 c -2.8219,-1.14158 -6.92107,-6.20783 -8.22872,-10.17007 -0.59707,-1.80913 -1.45457,-7.2881 -1.90554,-12.17546 -1.02036,-11.05777 -2.3177,-13.95646 -17.66847,-39.47707 -18.42028,-30.62368 -24.80646,-44.11897 -29.46775,-62.27137 -2.31545,-9.01697 -2.69015,-12.4247 -2.67072,-24.2887 0.0335,-20.49056 3.89444,-34.46099 14.43786,-52.24263 13.41964,-22.63246 35.03276,-38.260139 62.11273,-44.911521 10.65506,-2.617096 31.16547,-3.572937 42.1629,-1.9649 34.35313,5.023089 67.05957,28.713411 78.73715,57.031841 10.5096,25.48604 11.79295,53.25475 3.59839,77.86079 -3.41247,10.24672 -8.14295,19.39437 -19.22168,37.17024 -24.35106,39.07139 -25.23407,40.97829 -26.36715,56.9412 -0.69455,9.78501 -2.36931,13.33289 -8.12453,17.21132 l -3.32594,2.24135 -41.00833,-0.0625 c -22.5546,-0.0344 -41.93168,-0.43601 -43.0602,-0.89254 z m 15.91405,-58.31002 c 7.43798,-7.90919 19.91689,-7.8337 27.58192,0.16688 3.31233,3.45732 6.51911,3.711 11.1583,0.88267 2.83149,-1.72623 3.23457,-2.42909 2.75842,-4.80982 -0.81157,-4.05781 0.98863,-9.47424 4.46463,-13.43317 4.05748,-4.62122 6.19905,-5.69191 12.62549,-6.3122 5.2851,-0.51011 5.48329,-0.64026 7.87699,-5.17251 l 2.45548,-4.64923 -4.06538,-4.22232 c -5.25197,-5.4547 -6.43138,-7.87165 -6.43138,-13.17971 0,-4.49803 2.91105,-10.58008 5.5483,-11.59209 0.77066,-0.29574 2.10307,-1.60886 2.96089,-2.91808 1.44074,-2.19883 1.4102,-2.72912 -0.40039,-6.95306 -1.88935,-4.40769 -2.11018,-4.57269 -6.11967,-4.57269 -5.39862,0 -12.05338,-3.26885 -15.28786,-7.50947 -1.88519,-2.47162 -2.744,-5.0805 -3.23545,-9.82856 -0.71848,-6.94166 -1.21753,-7.59201 -7.25107,-9.44963 -3.58855,-1.10484 -3.86081,-1.02217 -6.63412,2.01422 -3.22337,3.52914 -10.00769,6.97852 -13.77407,7.0032 -4.95973,0.0325 -10.0771,-2.16414 -13.86419,-5.95122 -2.1334,-2.1334 -4.43337,-3.86917 -5.11106,-3.85726 -0.67769,0.0119 -3.11736,0.87738 -5.4215,1.92326 -4.13067,1.87498 -4.18934,1.97186 -4.18934,6.91772 0,9.82987 -6.80688,17.46067 -16.4929,18.48924 -5.52043,0.58622 -7.65998,2.18328 -9.20777,6.87313 -1.08535,3.28866 -0.97051,3.59655 2.80496,7.52019 5.01999,5.21699 6.13834,7.46541 6.13834,12.34084 0,5.36109 -1.10292,7.87711 -5.86488,13.37912 -4.34912,5.02501 -4.50012,6.59071 -1.09881,11.39304 1.43516,2.0263 2.83391,2.57013 7.86944,3.05957 9.14643,0.88903 14.60155,5.74237 15.49211,13.78314 0.83378,7.52805 1.30065,8.69858 4.06851,10.2004 4.30343,2.33502 7.43017,1.88401 10.64606,-1.5356 z m 3.83476,-24.84321 c -15.9824,-6.15797 -22.45686,-24.83922 -13.7549,-39.688 10.80738,-18.4414 38.65383,-17.42379 48.21448,1.76193 3.03607,6.0926 3.53364,16.9269 1.05033,22.8703 -2.23695,5.35378 -8.21595,11.44816 -13.77778,14.04366 -5.53459,2.58279 -16.34849,3.08642 -21.73213,1.01211 z m 54.1903,-74.62127 c 5.45693,-4.12893 7.1427,-3.8936 15.49649,2.16325 2.35834,1.7099 6.75321,-1.33044 6.75321,-4.67182 0,-5.65154 4.87605,-10.27847 10.83187,-10.27847 0.91637,0 2.19976,-1.17118 2.85198,-2.60263 1.01275,-2.22276 0.90995,-2.90616 -0.70432,-4.68221 -4.83713,-5.32184 -5.0052,-9.05495 -0.64115,-14.24134 2.16823,-2.57678 2.33503,-3.27115 1.32065,-5.49747 -0.66736,-1.46468 -1.97345,-2.54816 -3.07172,-2.54816 -5.58439,0 -10.58731,-4.90202 -10.58731,-10.3738 0,-3.24862 -4.43726,-6.25565 -6.75321,-4.57649 -8.13898,5.9011 -10.43903,6.13148 -16.33303,1.6359 -2.65978,-2.02871 -3.74443,-2.32632 -5.7288,-1.57187 -1.91674,0.72875 -2.56902,1.83434 -3.00648,5.09594 -0.68775,5.12748 -3.4026,7.99309 -8.85122,9.3427 -3.17173,0.78562 -4.38489,1.6642 -5.09803,3.69199 -0.79235,2.25302 -0.52905,3.08563 1.7172,5.43021 3.51719,3.67115 3.59242,8.78657 0.1887,12.83165 -1.35537,1.61077 -2.46431,3.49508 -2.46431,4.18736 0,2.26894 3.20761,4.86395 6.01216,4.86395 4.21361,0 7.80985,3.69278 8.48289,8.7106 0.41569,3.09923 1.14301,4.50211 2.64979,5.11104 2.87923,1.16358 2.63115,1.23585 6.93464,-2.02033 z m -1.42313,-14.58499 c -3.76459,-1.97067 -7.88497,-8.76924 -7.8488,-12.95039 0.0368,-4.2481 3.59859,-10.71299 7.06757,-12.82797 4.05229,-2.47061 12.62235,-2.69101 16.46121,-0.42334 1.46381,0.86469 3.69292,3.07748 4.95359,4.91731 3.14919,4.59593 2.64403,13.87735 -0.96557,17.741 -5.18397,5.54882 -13.10937,6.97666 -19.668,3.54339 z M 86.758324,292.42857 c -3.478661,-2.9271 -4.677444,-7.53176 -3.064971,-11.7729 1.193943,-3.14031 27.484787,-30.36055 33.907697,-35.10635 4.55517,-3.36577 8.64248,-3.63392 13.184,-0.86497 3.52558,2.14955 5.15049,5.33592 5.15049,10.09989 0,2.66218 -2.28561,5.38012 -17.0038,20.22022 -9.35208,9.42955 -18.2016,17.77536 -19.66559,18.54623 -4.175088,2.19847 -9.085026,1.75798 -12.507826,-1.12212 z m 263.777116,-2.10729 c -11.17567,-10.08309 -29.49711,-28.53679 -30.83006,-31.05264 -4.44865,-8.39648 1.54464,-17.48084 10.72078,-16.25006 3.68207,0.49387 5.64235,2.15005 22.07668,18.65189 l 18.03581,18.10988 v 4.70463 c 0,3.88554 -0.50165,5.20627 -2.88136,7.58597 -2.35305,2.35306 -3.71631,2.88136 -7.43519,2.88136 -4.04006,0 -5.13292,-0.52248 -9.68666,-4.63103 z M 37.757099,159.51337 c -3.79646,-3.79646 -4.34897,-7.63193 -1.80741,-12.54677 2.707458,-5.23565 5.71017,-5.78776 31.477803,-5.78776 26.322823,0 28.931688,0.5144 31.663513,6.24308 2.218035,4.65127 1.172435,9.66604 -2.693706,12.91919 l -2.999293,2.52374 H 67.253284 41.108572 Z m 321.061321,1.97588 c -4.82454,-2.67403 -6.62778,-10.70071 -3.42972,-15.26657 3.16087,-4.51277 6.47546,-5.04384 31.48025,-5.04384 25.34832,0 28.37096,0.53787 31.03906,5.52324 2.93864,5.49091 0.59232,13.24466 -4.60595,15.22103 -4.00061,1.52104 -51.64105,1.14167 -54.48364,-0.43386 z M 119.67104,60.45875 C 118.04459,59.438749 109.3331,51.12333 100.31216,41.980049 82.518474,23.945002 81.370881,22.081366 84.074475,15.610756 c 1.898126,-4.542853 6.786446,-7.058183 11.865298,-6.105388 2.937014,0.550992 6.673117,3.681869 20.398607,17.094257 9.24168,9.030861 17.43172,17.635462 18.20011,19.121348 2.96579,5.735208 0.609,12.836782 -5.04399,15.198752 -4.42859,1.850378 -6.2761,1.763683 -9.82346,-0.460975 z m 204.91132,0.445499 C 320.2834,59.03324 318.2951,55.758339 318.2951,50.548602 v -4.433299 l 17.98952,-17.95619 C 347.62384,16.840914 355.27625,9.957984 356.9849,9.540302 c 3.87863,-0.948112 7.46681,0.212592 10.72287,3.468646 2.32475,2.324739 2.83088,3.670149 2.83088,7.525052 v 4.694173 l -16.94274,17.043306 c -15.57296,15.665386 -21.04337,20.114003 -24.60678,20.0106 -0.7313,-0.02119 -2.71433,-0.641245 -4.40677,-1.37783 z"
     style="fill:#f51b01;fill-opacity:1;stroke-width:0.99999994"
     sodipodi:nodetypes="csscsccssscsscccsscccscssscsscccsccccsscssssssscccccscscccscssccsscscscscsssssssccscscsscscsssscccsssscccccscssccssccsscssscssscssssscscssssscscccssssccscsscscsccscsccscscc" />
  <path
     sodipodi:nodetypes="ssccsccccassssccssaaaaaccccccaascccscccccaaaacs"
     inkscape:connector-curvature="0"
     id="path876"
     d="m 232.68348,173.29396 c 4.70301,-1.12419 7.44408,-1.65673 14.12332,-3.31217 6.67924,-1.65545 13.49852,-3.33539 15.15396,-3.7332 1.65544,-0.39781 5.40623,-1.33565 8.33508,-2.08407 2.92885,-0.74844 8.86758,-2.20817 13.19718,-3.24387 9.09075,-2.17461 8.6066,-2.21851 16.12107,1.46197 9.24869,4.52433 19.70501,8.88625 27.07886,13.98436 0.35347,0.28924 0.74272,0.31765 0.95089,0.0694 4.17768,-12.52626 6.29555,-26.85442 7.45276,-38.39116 0.30005,-7.08147 0.90787,-13.18972 -0.17661,-19.64938 -1.35843,-8.09144 -3.50791,-16.58141 -7.82866,-23.33584 -0.93028,-1.45426 -1.69142,-2.75065 -1.69142,-2.88085 0,-0.1302 -1.54909,-2.26202 -3.44243,-4.73737 -3.29932,-4.31354 -11.3029,-12.48789 -14.60777,-14.91946 -0.86538,-0.63671 -2.39834,-1.84416 -3.40658,-2.68322 -1.00825,-0.83906 -2.79214,-2.07933 -3.96422,-2.75617 -1.17207,-0.67684 -2.86035,-1.785087 -3.75175,-2.462779 -2.35767,-1.792467 -16.10312,-8.787789 -21.76379,-11.076013 -13.95025,-5.63914 -27.27795,-8.042946 -41.31285,-9.964918 -4.17488,-0.571719 -8.42051,-0.52953 -12.63358,-0.448755 -1.54747,0.02965 -3.10155,0.102716 -4.6306,0.342581 -12.31563,1.931991 -24.79992,4.103577 -36.35016,8.793914 -5.15074,2.091623 -9.97658,5.064462 -14.35483,8.490257 -4.63783,3.628915 -8.64061,8.694423 -12.38684,12.596553 -3.73921,3.83652 -10.92061,14.03672 -14.47413,20.55845 -2.03195,3.72923 -6.8103,13.39492 -7.43761,15.04482 -0.42092,1.1071 -0.54048,1.14622 -5.98759,1.95959 -1.91012,0.28522 -5.03577,0.94454 -6.94589,1.46516 -13.97717,4.29567 -27.752359,8.98052 -40.517707,16.06849 -4.218195,2.36691 -7.750997,4.16946 -9.499852,7.89763 -0.750918,1.60078 -0.597209,3.64022 0,5.30447 1.961995,5.4675 4.964878,8.84394 11.08018,13.45054 9.667941,7.28276 20.209536,12.58976 31.884199,16.05163 4.60753,1.36625 15.74794,3.00409 16.03138,2.7099 0.0867,-0.09 -3.38606,-13.08426 -2.59335,-23.11163 0.79275,-10.02738 2.07849,-13.69817 2.21666,-13.92176 0.13818,-0.2236 0.6036,-0.40503 1.03429,-0.40318 1.07601,0.005 10.85986,3.34543 13.98884,4.77665 1.40483,0.64258 3.64965,1.60011 4.98855,2.12784 2.46213,0.9705 17.06971,8.16251 17.92429,8.82499 0.25468,0.19744 1.92169,1.14371 3.70447,2.10283 1.78278,0.95911 2.63569,1.52358 3.93599,2.3147 2.0301,1.23515 4.06399,2.46755 6.03417,3.79619 4.32708,2.91809 8.38476,6.22168 12.69664,9.16219 2.68647,1.83205 5.06308,4.43345 8.20264,5.28003 10.83214,2.92091 22.4594,1.21181 33.6228,-1.51937 z"
     style="fill:#008740;fill-opacity:1;stroke:none;stroke-width:1" />
  <path
     style="opacity:0.5;fill:#fffcff;fill-opacity:1;fill-rule:nonzero;stroke:none;stroke-width:2;stroke-linecap:round;stroke-linejoin:round;stroke-miterlimit:4;stroke-dasharray:none;stroke-opacity:1;paint-order:fill markers stroke"
     d="m 269.08888,150.22267 c 1.19812,-1.40853 8.08237,-19.16062 9.6023,-24.761 0.83766,-3.08645 1.4651,-7.06953 1.65105,-10.48086 0.66304,-12.16483 -1.9453,-19.6407 -9.41058,-26.97196 -5.71735,-5.61471 -14.45377,-11.36659 -24.99424,-16.45569 -9.96267,-4.81013 -18.56065,-7.824776 -28.12152,-9.860046 -6.19158,-1.318034 -7.68715,-1.433776 -18.78029,-1.453413 -9.9363,-0.01757 -12.78922,0.149343 -16.24532,0.950574 -15.77128,3.656266 -27.67552,14.416905 -39.52831,35.730955 -3.19706,5.74904 -4.57399,8.9808 -4.04974,9.50505 0.15619,0.15618 3.77592,0.73224 8.04388,1.28012 31.22625,4.00858 65.49471,16.05812 112.21489,39.4572 4.36648,2.18688 8.14128,3.97615 8.38843,3.97615 0.24715,0 0.80041,-0.41268 1.22945,-0.91708 z"
     id="path901"
     inkscape:connector-curvature="0" />
  <flowRoot
     xml:space="preserve"
     id="flowRoot1498"
     style="font-style:normal;font-weight:normal;font-size:40px;line-height:1.25;font-family:sans-serif;letter-spacing:0px;word-spacing:0px;fill:#000000;fill-opacity:1;stroke:none"
     transform="translate(0,-60)"><flowRegion
       id="flowRegion1500"><rect
         id="rect1502"
         width="559.2019"
         height="217.8051"
         x="-108.39603"
         y="311.93396" /></flowRegion><flowPara
       id="flowPara1504" /></flowRoot>  <flowRoot
     xml:space="preserve"
     id="flowRoot1506"
     style="font-style:normal;font-weight:normal;font-size:40px;line-height:1.25;font-family:sans-serif;letter-spacing:0px;word-spacing:0px;fill:#000000;fill-opacity:1;stroke:none"
     transform="translate(0,-60)"><flowRegion
       id="flowRegion1508"><rect
         id="rect1510"
         width="319.1098"
         height="201.59634"
         x="-49.639301"
         y="292.68607" /></flowRegion><flowPara
       id="flowPara1512" /></flowRoot>  <path
     style="fill:#008740;fill-opacity:1;stroke-width:1"
     d="m 245.87559,452.02348 c -0.46674,-0.10044 -1.44137,-0.7417 -2.16584,-1.42496 -2.14661,-2.02451 -1.91855,-3.01862 2.41008,-10.50554 1.05748,-1.82904 1.9227,-3.46328 1.9227,-3.63165 0,-0.16838 -0.42068,-0.41171 -0.93482,-0.54076 -0.51414,-0.12904 -1.19215,-0.73225 -1.50666,-1.34045 -1.68214,-3.2529 0.57838,-6.42022 5.00083,-7.00688 l 1.98606,-0.26346 1.54664,-2.68062 c 10.63679,-18.43553 15.28974,-24.9029 19.04535,-26.47209 1.55159,-0.64829 6.51932,-0.76607 8.02563,-0.19029 2.19129,0.83762 2.38418,1.45575 2.70215,8.65906 0.47048,10.65858 1.40555,25.71213 2.03608,32.77831 0.32058,3.59275 0.48737,6.91284 0.37064,7.37796 -0.31102,1.23916 -1.63244,2.77835 -2.99272,3.4859 -1.46887,0.76405 -5.09701,0.73491 -6.62098,-0.0532 -1.55511,-0.80417 -1.89813,-2.20535 -2.35537,-9.62131 -0.22354,-3.62542 -0.45514,-6.6473 -0.51469,-6.7153 -0.14337,-0.16376 -12.21802,0.91815 -12.35603,1.10712 -0.0588,0.0806 -1.44719,2.58178 -3.08521,5.5582 -3.64161,6.61718 -5.69724,9.75522 -7.02302,10.72102 -1.00558,0.73255 -3.81153,1.12037 -5.49082,0.75892 z m 27.68606,-27.06771 c 0.3505,-0.11805 0.47084,-1.70197 0.47084,-6.19707 0,-3.32116 -0.1282,-6.03847 -0.28491,-6.03847 -0.29895,0 -7.24841,12.20318 -7.24841,12.72815 0,0.28122 6.00957,-0.13796 7.06248,-0.49261 z M 16.486945,450.41173 c -3.25758,-2.0123 -3.14332,-6.7653 0.20331,-8.45661 0.55141,-0.27867 2.14103,-0.71715 3.53247,-0.97441 1.7583,-0.32508 2.59117,-0.66076 2.73077,-1.10065 0.9408,-2.96418 7.60118,-30.17317 7.38597,-30.17317 -0.15364,0 -1.26035,0.19702 -2.45935,0.43781 -1.89314,0.3802 -2.33858,0.35241 -3.3851,-0.21118 -1.55646,-0.83821 -2.51253,-2.48489 -2.53857,-4.37234 -0.042,-3.04086 1.53962,-4.18687 7.32624,-5.30861 4.84243,-0.9387 14.803213,-2.22233 17.245041,-2.22233 1.60686,0 2.07408,0.18295 3.272867,1.28155 1.158391,1.06158 1.398397,1.53538 1.398397,2.76046 0,2.82669 -2.653259,5.21419 -6.352499,5.71618 -1.157617,0.15709 -2.165094,0.35639 -2.238853,0.44288 -0.07379,0.0864 -1.692795,6.59824 -3.597857,14.47057 -1.905062,7.87232 -3.564944,14.72146 -3.688629,15.2203 -0.223973,0.90335 -0.215465,0.906 2.115738,0.66235 2.774459,-0.29 4.194439,0.2763 5.319489,2.12145 1.415528,2.32154 0.5283,4.74575 -2.355381,6.4357 -1.353266,0.79307 -2.732505,1.09108 -8.027753,1.7346 -5.70316,0.69309 -11.81338,1.61708 -13.92708,2.10607 -0.41434,0.0958 -1.29598,-0.16093 -1.95922,-0.57062 z m 35.01562,0.33126 c -1.906839,-0.25961 -3.390346,-1.52362 -3.695164,-3.14844 -0.248953,-1.32704 10.231783,-43.87977 11.57883,-47.01105 0.517556,-1.20308 1.177309,-2.03695 1.912399,-2.41708 1.409518,-0.72889 5.800327,-0.73276 7.53818,-0.006 1.242424,0.51912 1.324607,0.71324 6.860868,16.20625 3.081848,8.62446 5.710629,15.68084 5.841737,15.68084 0.131098,0 0.891481,-3.09337 1.689743,-6.87416 2.183949,-10.34381 3.778768,-16.5837 4.819638,-18.85724 1.07508,-2.34828 3.27711,-4.93843 4.921262,-5.78866 1.975268,-1.02144 6.935275,0.006 7.531772,1.56095 0.12214,0.31829 -0.693459,4.35019 -1.812447,8.95975 -1.118998,4.60957 -3.579294,15.05616 -5.46733,23.21464 -1.888036,8.15846 -3.773877,15.50216 -4.19075,16.31929 -1.015974,1.99148 -2.420715,2.53826 -5.622425,2.18847 -2.714497,-0.29657 -3.545776,-0.6372 -4.757189,-1.94932 -0.447904,-0.48514 -3.108375,-6.89932 -5.912151,-14.25372 -2.803787,-7.35442 -5.296411,-13.88016 -5.539166,-14.50166 -0.404404,-1.0353 -0.731934,0.0415 -3.908455,12.84969 -1.906881,7.68883 -3.692656,14.52432 -3.968387,15.18999 -0.27573,0.66567 -0.924655,1.48769 -1.442065,1.82671 -1.114786,0.73042 -4.143685,1.1157 -6.3789,0.81138 z m 51.979925,0 c -1.90683,-0.25961 -3.39034,-1.52362 -3.695159,-3.14844 -0.248953,-1.32704 10.231779,-43.87977 11.578829,-47.01105 0.51756,-1.20308 1.17731,-2.03695 1.9124,-2.41708 1.41564,-0.73206 5.80302,-0.73163 7.55583,7.5e-4 1.25827,0.52573 1.35441,0.74526 7.25629,16.56952 3.28961,8.8202 6.08907,15.91563 6.22101,15.76762 0.13193,-0.14801 1.81005,-7.21859 3.72915,-15.71242 2.34626,-10.38442 3.70439,-15.67178 4.14596,-16.14075 0.86789,-0.92177 2.75816,-1.27877 5.09857,-0.96293 2.27215,0.30662 5.68358,1.70601 5.96842,2.44828 0.11185,0.2915 -0.71216,4.30146 -1.83115,8.91104 -1.11899,4.60956 -3.57928,15.05614 -5.46732,23.21462 -1.88804,8.15848 -3.77359,15.5016 -4.19012,16.31805 -0.90068,1.76549 -2.45703,2.53962 -4.63967,2.30779 -5.84303,-0.62063 -5.30316,0.13664 -12.27118,-17.21302 -3.21108,-7.99526 -5.93027,-14.54013 -6.04263,-14.54413 -0.11237,-0.004 -1.69828,6.13709 -3.52426,13.64687 -1.82597,7.50978 -3.62496,14.36002 -3.99775,15.22276 -0.3728,0.86274 -1.07514,1.78656 -1.56075,2.05292 -1.14266,0.62677 -4.21592,0.96606 -6.24647,0.68961 z m 70.08976,-0.0179 c -8.48299,-0.80306 -14.5387,-6.18268 -16.91707,-15.02828 -0.97716,-3.63427 -0.90466,-10.86512 0.1522,-15.18016 2.7311,-11.15061 10.5615,-19.53482 20.67223,-22.13427 4.66108,-1.19836 14.02978,-0.9612 17.7536,0.44942 2.48767,0.94236 3.18819,2.56072 2.16667,5.00555 -0.50881,1.21775 -0.48959,1.29115 0.53662,2.04987 1.34102,0.99146 3.34525,5.0159 3.68667,7.40276 0.39902,2.7895 -0.17635,10.27291 -1.09069,14.18563 -1.74619,7.47253 -4.51746,12.85276 -8.81117,17.10636 -4.9872,4.94058 -10.64018,6.85403 -18.14906,6.14315 z m 4.99277,-9.23219 c 5.0491,-2.39596 10.43847,-13.39554 11.27783,-23.01778 0.34158,-3.91579 0.15859,-4.57059 -1.93669,-6.92974 -1.26241,-1.42141 -1.67895,-2.17388 -1.5569,-2.81239 0.20945,-1.09561 -0.27312,-1.28618 -3.25684,-1.28618 -5.82737,0 -10.82523,5.46636 -13.62014,14.8969 -1.33253,4.49622 -1.70136,11.20094 -0.77036,14.00394 0.70676,2.12783 2.48135,4.32848 4.17736,5.18028 1.47824,0.74243 4.08115,0.7264 5.68574,-0.035 z m 41.41804,9.06923 c -2.26265,-0.57451 -4.28879,-2.22664 -5.54897,-4.52469 -2.32551,-4.24073 -4.35828,-21.24343 -4.48257,-37.49333 -0.0616,-8.04985 0.15413,-8.85579 2.72024,-10.16493 1.8916,-0.96502 4.97433,-1.0664 6.61579,-0.21757 2.04211,1.05602 2.29831,2.50136 2.54728,14.37019 0.23298,11.1075 0.85455,22.28446 1.28245,23.06078 0.14358,0.2605 1.30427,-1.86796 2.67026,-4.89666 7.44518,-16.50778 12.6475,-26.88466 15.29818,-30.51472 1.54422,-2.11479 2.62523,-2.63375 5.38472,-2.58504 3.39394,0.0599 6.46045,1.98566 7.18506,4.51223 0.48326,1.68503 -1.13123,4.69527 -4.68134,8.72842 -3.22662,3.66564 -5.9807,8.73513 -12.07319,22.2233 -6.21783,13.76572 -7.12156,15.31226 -9.72338,16.63962 -2.05778,1.04979 -5.04586,1.40798 -7.19453,0.8624 z m 84.80576,0.12214 c -2.13421,-0.19373 -3.40846,-0.53385 -4.58642,-1.22418 -2.79731,-1.63933 -5.45327,-5.54786 -5.45327,-8.02504 0,-0.64929 1.70589,-7.81688 3.79086,-15.92797 2.08497,-8.11109 3.704,-14.83428 3.59785,-14.94044 -0.10616,-0.10615 -1.47072,0.4962 -3.03238,1.33854 l -2.83937,1.53154 -0.96376,-1.26356 c -1.07725,-1.41235 -1.69522,-4.36822 -1.25632,-6.00931 0.1582,-0.59152 0.65948,-1.47131 1.11397,-1.95509 0.83882,-0.89288 4.79066,-2.69094 7.87581,-3.58342 1.16624,-0.33738 2.22972,-1.05363 3.40919,-2.29609 1.23557,-1.30158 2.02432,-1.81988 2.82499,-1.85634 2.38823,-0.10876 4.54821,0.15627 5.57079,0.68355 0.68894,0.35524 1.56084,0.46921 2.44833,0.32008 2.18597,-0.36737 7.61969,0.40803 9.88155,1.4101 4.50428,1.99553 8.30003,6.95118 9.59235,12.52356 1.53499,6.61875 0.23005,15.82887 -3.25427,22.96825 -5.6294,11.53463 -16.05755,17.45524 -28.7199,16.30582 z m 10.48861,-10.85149 c 2.74052,-1.29676 6.13894,-4.90809 7.81963,-8.30954 2.16048,-4.3725 3.02041,-8.06254 3.06519,-13.15311 0.0331,-3.76671 -0.0743,-4.57549 -0.82359,-6.20122 -1.66073,-3.60324 -3.49958,-4.7221 -7.76085,-4.7221 -2.35655,0 -2.84577,0.10728 -3.00603,0.65917 -0.10528,0.36255 -1.90016,7.60866 -3.98861,16.10248 -2.08845,8.49382 -3.89632,15.76095 -4.01749,16.14917 -0.20704,0.66335 -0.008,0.69562 3.30406,0.53607 2.6698,-0.12861 3.98101,-0.38585 5.40769,-1.06092 z m 44.78334,10.87626 c -7.86384,-0.76771 -12.94873,-5.62693 -15.11819,-14.44726 -0.96397,-3.91923 -0.88,-11.43625 0.1759,-15.74516 3.39895,-13.87056 14.1665,-22.86043 27.41997,-22.89305 5.88886,-0.0145 9.48515,1.42293 13.00649,5.19865 3.50168,3.75462 4.90266,8.20861 4.94978,15.73625 0.0391,6.25286 -0.84426,10.06233 -3.66847,15.81998 -5.70833,11.63749 -15.24376,17.4554 -26.76548,16.33059 z m 6.81574,-9.21614 c 3.65617,-1.73497 8.29848,-9.26588 10.19033,-16.53111 1.30819,-5.02384 1.48779,-12.72366 0.35025,-15.01695 -1.05135,-2.1195 -2.51652,-2.87159 -5.5976,-2.87328 -3.10828,-0.002 -4.58416,0.57577 -6.88008,2.69208 -4.84587,4.46677 -7.97733,12.08244 -8.35523,20.3199 -0.15963,3.47914 -0.0722,4.75433 0.42923,6.26411 0.70675,2.12783 2.48134,4.32848 4.17735,5.18028 1.47825,0.74243 4.08115,0.7264 5.68575,-0.035 z m 38.94653,9.24153 c -6.99642,-0.6076 -9.08094,-4.31201 -10.96925,-8.44599 -0.88618,-1.94013 -0.87476,-2.61257 0.0778,-4.58013 0.6467,-1.33594 1.18578,-1.80874 3.10749,-2.72551 1.27879,-0.61007 -1.91082,-1.2124 -1.15198,-1.33852 1.31554,-0.21867 1.39991,-0.16795 1.81546,1.09105 0.5784,1.75262 3.34087,4.13016 5.97777,5.14478 3.00157,1.15497 7.63411,1.38278 10.4037,0.51164 2.93453,-0.92302 4.34168,-2.29789 4.34168,-4.24208 0,-2.10618 -1.30252,-3.13214 -7.72704,-6.08631 -6.5471,-3.01055 -8.95204,-4.40429 -11.40459,-6.60933 -5.64732,-5.07743 -5.58802,-14.27362 0.12904,-20.02039 3.84487,-3.86479 9.46548,-5.7927 16.96204,-5.81805 7.01183,-0.0237 12.17738,1.66084 15.67925,5.11325 4.99999,4.92937 3.06734,11.1213 -3.47124,11.1213 -1.77873,0 -1.96175,-0.0876 -2.55749,-1.22416 -1.01435,-1.93525 -3.53471,-4.21412 -5.2186,-4.71864 -2.45044,-0.73416 -6.81479,-0.57316 -8.7947,0.32446 -2.95231,1.33846 -4.51999,3.32828 -4.51999,5.73717 0,1.85425 1.02582,2.90012 4.38104,4.46674 14.46312,6.75301 15.41943,7.32175 17.43987,10.37207 1.50128,2.26651 1.95091,4.00437 1.95091,7.54032 0,6.08271 -3.69005,10.34085 -11.2004,12.9248 -3.68508,1.26785 -10.24354,1.89637 -15.25069,1.46153 z"
     id="path862"
     inkscape:connector-curvature="0"
     sodipodi:nodetypes="cccsccscsccsccssscccsccssscscscscscsscscssccccscsccsccssssscssssssssscccccsccscscscssssscscsccsssssccsssscsccsssscccssssssscscssscscsssscccccsscscssssscsscscssssscccsscscccssscccccccccssccccsscccsccscc" />
  <text
     xml:space="preserve"
     style="font-style:normal;font-weight:normal;font-size:40px;line-height:1.25;font-family:sans-serif;letter-spacing:0px;word-spacing:0px;fill:#000000;fill-opacity:1;stroke:none"
     x="140.82106"
     y="483.75256"
     id="text833"><tspan
       sodipodi:role="line"
       id="tspan831"
       x="140.82106"
       y="483.75256"
       style="font-size:32px">NIT: 901385629-2</tspan></text>
</svg>
