<?xml version="1.0" encoding="UTF-8" standalone="no"?>
<svg
   xmlns:dc="http://purl.org/dc/elements/1.1/"
   xmlns:cc="http://creativecommons.org/ns#"
   xmlns:rdf="http://www.w3.org/1999/02/22-rdf-syntax-ns#"
   xmlns:svg="http://www.w3.org/2000/svg"
   xmlns="http://www.w3.org/2000/svg"
   xmlns:sodipodi="http://sodipodi.sourceforge.net/DTD/sodipodi-0.dtd"
   xmlns:inkscape="http://www.inkscape.org/namespaces/inkscape"
   id="a8897f4c-2937-4134-8b3a-fee1040aeff6"
   data-name="Layer 1"
   width="1066.10578"
   height="824.1997"
   viewBox="0 0 1066.10578 824.1997"
   version="1.1"
   sodipodi:docname="undraw_people_tax5.svg"
   inkscape:version="0.92.4 (5da689c313, 2019-01-14)">
  <metadata
     id="metadata3217">
    <rdf:RDF>
      <cc:Work
         rdf:about="">
        <dc:format>image/svg+xml</dc:format>
        <dc:type
           rdf:resource="http://purl.org/dc/dcmitype/StillImage" />
      </cc:Work>
    </rdf:RDF>
  </metadata>
  <defs
     id="defs3215" />
  <sodipodi:namedview
     pagecolor="#ffffff"
     bordercolor="#666666"
     borderopacity="1"
     objecttolerance="10"
     gridtolerance="10"
     guidetolerance="10"
     inkscape:pageopacity="0"
     inkscape:pageshadow="2"
     inkscape:window-width="1920"
     inkscape:window-height="1017"
     id="namedview3213"
     showgrid="false"
     inkscape:zoom="0.57267674"
     inkscape:cx="210.88164"
     inkscape:cy="273.787"
     inkscape:window-x="-8"
     inkscape:window-y="-8"
     inkscape:window-maximized="1"
     inkscape:current-layer="a8897f4c-2937-4134-8b3a-fee1040aeff6" />
  <title
     id="title3142">people</title>
  <polygon
     points="962.551 394.71 946.672 466.13 933.782 524.07 923.508 570.28 910.626 628.22 868.531 817.51 346.914 576.48 308.572 558.76 260.039 536.33 221.683 518.61 175.551 497.29 201.704 459.24 223.452 427.6 250.965 387.57 272.707 355.95 517.369 0 776.55 229.8 822.703 270.72 859.505 303.35 905.666 344.27 962.551 394.71"
     fill="#f2f2f2"
     id="polygon3144" />
  <path
     d="M271.30076,642.73135C236.42088,623.287,214.707,596.74014,206.7617,563.829c-5.89942-24.43555-4.2041-51.93262,5.03808-81.72754a218.88823,218.88823,0,0,1,30.439-61.48437c70.63818-99.98633,77.01367-165.1377,69.92334-202.18653-7.77393-40.623-33.03125-57.49414-33.28565-57.65967l1.09034-1.67675c.26074.16943,26.18359,17.43261,34.14453,58.87988,4.58935,23.89453,2.43017,51.14062-6.41748,80.981-11.01172,37.13769-32.48438,78.459-63.82129,122.8164a216.90408,216.90408,0,0,0-30.1626,60.92188c-15.1582,48.86718-17.30273,115.99707,58.56445,158.292Z"
     transform="translate(-66.94711 -37.90015)"
     fill="#2f2e41"
     id="path3146" />
  <path
     d="M288.07412,642.73135C322.954,623.287,344.66787,596.74014,352.61318,563.829c5.89942-24.43555,4.2041-51.93262-5.03808-81.72754a218.88823,218.88823,0,0,0-30.439-61.48437c-70.63818-99.98633-77.01367-165.1377-69.92334-202.18653,7.77393-40.623,33.03125-57.49414,33.28565-57.65967l-1.09034-1.67675c-.26074.16943-26.18359,17.43261-34.14453,58.87988-4.58935,23.89453-2.43017,51.14062,6.41748,80.981,11.01172,37.13769,32.48438,78.459,63.82129,122.8164a216.90408,216.90408,0,0,1,30.1626,60.92188c15.1582,48.86718,17.30273,115.99707-58.56445,158.292Z"
     transform="translate(-66.94711 -37.90015)"
     fill="#2f2e41"
     id="path3148" />
  <path
     d="M1048.30076,558.73135C1013.42088,539.287,991.707,512.74014,983.7617,479.829c-5.89942-24.43555-4.2041-51.93262,5.03808-81.72754a218.88823,218.88823,0,0,1,30.439-61.48437c70.63818-99.98633,77.01367-165.1377,69.92334-202.18653-7.77393-40.623-33.03125-57.49414-33.28565-57.65967l1.09034-1.67675c.26074.16943,26.18359,17.43261,34.14453,58.87988,4.58935,23.89453,2.43017,51.14062-6.41748,80.981-11.01172,37.13769-32.48438,78.459-63.82129,122.8164a216.90408,216.90408,0,0,0-30.1626,60.92188c-15.1582,48.86718-17.30273,115.99707,58.56445,158.292Z"
     transform="translate(-66.94711 -37.90015)"
     fill="#2f2e41"
     id="path3150" />
  <path
     d="M1065.07412,558.73135c34.87988-19.44433,56.59375-45.99121,64.53906-78.90234,5.89942-24.43555,4.2041-51.93262-5.03808-81.72754a218.88823,218.88823,0,0,0-30.439-61.48437c-70.63818-99.98633-77.01367-165.1377-69.92334-202.18653,7.77393-40.623,33.03125-57.49414,33.28565-57.65967l-1.09034-1.67675c-.26074.16943-26.18359,17.43261-34.14453,58.87988-4.58935,23.89453-2.43017,51.14062,6.41748,80.981,11.01172,37.13769,32.48438,78.459,63.82129,122.8164a216.90408,216.90408,0,0,1,30.1626,60.92188c15.1582,48.86718,17.30273,115.99707-58.56445,158.292Z"
     transform="translate(-66.94711 -37.90015)"
     fill="#2f2e41"
     id="path3152" />
  <path
     d="M534.762,337.84484c-26.20687-44.2815-78.05507-46.34521-78.05507-46.34521s-50.52312-6.46085-82.93338,60.98042c-30.209,62.86081-71.90115,123.55421-6.71211,138.26947l11.775-36.64918,7.29222,39.37767a255.06843,255.06843,0,0,0,27.892.47669c69.81221-2.25395,136.29778.65944,134.157-24.39211C545.332,436.26009,559.97826,380.4525,534.762,337.84484Z"
     transform="translate(-66.94711 -37.90015)"
     fill="#2f2e41"
     id="path3154" />
  <path
     d="M427.19425,430.52233c9.03031,19.97526,14.72473,43.78567,18.12479,70.23353l72.49913-4.5312c-16.66786-23.6189-22.20214-50.72822-15.85919-81.56152Z"
     transform="translate(-66.94711 -37.90015)"
     fill="#ffb8b8"
     id="path3156" />
  <path
     d="M427.19425,430.52233c9.03031,19.97526,14.72473,43.78567,18.12479,70.23353l72.49913-4.5312c-16.66786-23.6189-22.20214-50.72822-15.85919-81.56152Z"
     transform="translate(-66.94711 -37.90015)"
     opacity="0.2"
     id="path3158" />
  <path
     d="M90.81926,810.84366s-37.5228,20.09888-18.48195,37.25877,44.19287-22.71411,44.19287-22.71411Z"
     transform="translate(-66.94711 -37.90015)"
     fill="#ffb8b8"
     id="path3160" />
  <polygon
     points="482.591 714.334 482.005 741.792 480.754 801.122 480.754 801.132 480.39 818.314 240.438 818.314 250.19 764.163 250.2 764.123 258.932 715.656 262.829 693.951 262.829 693.941 459.937 666.755 482.591 714.334"
     fill="#2f2e41"
     id="polygon3162" />
  <path
     d="M549.53654,752.23722l-.58908,27.459c-69.73517-1.78991-177.82675-18.62329-223.07067-26.14509l3.89676-21.70432,197.107-27.18718Z"
     transform="translate(-66.94711 -37.90015)"
     fill="#3f3d56"
     id="path3164" />
  <circle
     cx="395.36391"
     cy="355.23981"
     r="56.63995"
     fill="#ffb8b8"
     id="circle3166" />
  <path
     style="fill:#008740;fill-opacity:1"
     d="M 478.05859 379.0293 C 478.05859 379.0293 456.71487 406.002 445.53711 414.63867 C 442.99526 414.78704 441.01562 415.14258 441.01562 415.14258 C 402.86303 443.30395 365.27734 413.85156 365.27734 413.85156 C 353.33759 406.76022 352.31836 430.00391 352.31836 430.00391 C 340.99037 425.47271 343.25586 443.59768 343.25586 445.86328 C 343.25586 448.12888 329.66211 454.92578 329.66211 454.92578 L 291.14648 457.19141 C 261.69371 459.45701 225.44336 534.22266 225.44336 534.22266 L 80.445312 720.00195 L 3.4160156 781.17188 C 3.4160156 781.17188 46.462751 774.37544 37.400391 810.625 L 286.61523 667.91211 L 286.61523 670.1582 C 286.61523 670.1582 266.2245 686.01766 257.16211 692.81445 C 248.09972 699.61124 250.36523 772.10938 250.36523 772.10938 L 325.13086 701.87695 L 427.08203 704.14258 L 463.33203 740.39062 L 470.12891 801.5625 C 510.9097 806.0937 504.11328 744.92188 504.11328 744.92188 C 538.09724 667.89154 517.70703 638.43945 517.70703 638.43945 C 517.70703 638.43945 517.45662 636.96159 517.45117 636.92969 C 525.89983 633.2296 592.46228 602.30879 575.47852 553.48047 C 575.29727 552.95938 575.11692 552.44053 574.9375 551.92578 A 513.98548 513.98548 0 0 0 512.83984 429.51758 L 478.05859 379.0293 z "
     id="path3168" />
  <path
     d="M556.7183,510.4979v.02268c-3.01286,17.717-101.20407,14.02406-114.79766,14.02406s-24.92158-2.2656-38.51516-11.328-6.7968-20.39038-6.7968-20.39038,11.57456-8.81583,11.57456-11.08143-2.2656-20.39038,9.06239-15.85919c0,0,1.01941-23.245,12.95915-16.15372,0,0,39.6055,31.47181,77.75809,3.31044,0,0,17.78489-3.26246,15.51929,5.79993s0,15.85918,4.5312,15.85918,24.92157,6.7968,24.92157,11.328C552.93493,487.00366,554.40763,496.38327,556.7183,510.4979Z"
     transform="translate(-66.94711 -37.90015)"
     fill="#3f3d56"
     id="path3172" />
  <path
     d="M545.00534,425.99113s-18.12478-38.51516-36.24956-20.39038,20.39038,45.312,20.39038,45.312Z"
     transform="translate(-66.94711 -37.90015)"
     fill="#ffb8b8"
     id="path3174" />
  <polygon
     points="463.102 483.933 518.839 637.307 498.449 544.417 463.102 483.933"
     opacity="0.2"
     id="polygon3178" />
  <polygon
     points="456.229 295.676 405.005 268.845 334.268 279.821 319.632 344.46 356.064 343.059 366.242 319.311 366.242 342.668 383.052 342.021 392.809 304.213 398.907 344.46 458.668 343.241 456.229 295.676"
     fill="#2f2e41"
     id="polygon3180" />
  <path
     d="M1007.07589,682.23771,1036.13813,785.909s-5.98872,91.827,21.95862,73.86082c28.59982-18.3856,17.96614-95.81944,17.96614-95.81944L1059.311,670.94362Z"
     transform="translate(-66.94711 -37.90015)"
     fill="#a0616a"
     id="path3182" />
  <polygon
     points="1003.658 623.161 933.07 625.985 935.893 655.632 998.011 644.338 1003.658 623.161"
     fill="#3f3d56"
     id="polygon3186" />
  <polygon
     points="809.541 205.986 801.07 290.691 887.188 303.397 893.541 254.692 899.894 205.986 809.541 205.986"
     fill="#a0616a"
     id="polygon3188" />
  <polygon
     points="809.541 205.527 801.07 290.233 887.188 302.939 893.541 254.233 899.894 205.527 809.541 205.527"
     opacity="0.1"
     id="polygon3190" />
  <path
     d="M689.42968,646.94368l47.99987,103.05855s8.47057,47.99987,21.17642,49.41163,25.41169-49.41163,25.41169-49.41163l-16.94113-26.82346-19.76465-76.23509Z"
     transform="translate(-66.94711 -37.90015)"
     fill="#a0616a"
     id="path3192" />
  <path
     d="M1018.00305,857.214H746.6346c2.15028-34.01065,3.503-54.97836,3.503-54.97836l3.604-5.67348,17.47475-27.45889L783.694,749.49843l4.351-6.84456,1.61527-2.53384,17.09113-3.11943L983.0737,704.82727a215.42643,215.42643,0,0,0,12.32623,38.1093c1.20133,2.73581,2.49348,5.47156,3.87652,8.17706,4.43179,8.65158,9.84279,16.84886,16.27348,22.88581,1.46375,1.37293,2.52379,5.03749,3.21026,10.67061C1020.45617,798.47014,1019.97156,824.13207,1018.00305,857.214Z"
     transform="translate(-66.94711 -37.90015)"
     fill="#2f2e41"
     id="path3194" />
  <circle
     cx="856.83489"
     cy="165.7506"
     r="67.76452"
     fill="#a0616a"
     id="circle3196" />
  <polygon
     points="691.659 590.691 602.718 596.338 625.306 617.514 687.424 618.926 691.659 590.691"
     fill="#3f3d56"
     id="polygon3200" />
  <path
     d="M784.01766,734.47286l-18.35289,33.88226s55.05868,7.05881,74.82333,14.11761,70.588,16.94113,70.588,16.94113L923.782,750.00223Z"
     transform="translate(-66.94711 -37.90015)"
     fill="#3f3d56"
     id="path3202" />
  <polygon
     points="878.011 712.102 893.541 758.69 955.658 745.984 948.599 702.22 878.011 712.102"
     fill="#3f3d56"
     id="polygon3204" />
  <path
     d="M855.54758,212.33147s-7.037-10.55549-4.33045-21.92294a66.44367,66.44367,0,0,0,1.89457-19.7577s5.68372-18.40444,11.36745-28.68928,2.97719-14.61529,20.84032-17.86313,10.55549-26.524,57.6492-1.35327a13.81105,13.81105,0,0,0,14.34464,5.41307c9.74353-1.89457,13.262,11.6381,13.262,11.6381s6.49569-3.78914,8.93157,1.62393,19.8043-3.24882,19.8043,33.2894-19.76465,69.17629-19.76465,69.17629,1.44894-61.46168-30.75883-67.68672-66.85142-24.35881-75.24168-1.08261S855.54758,212.33147,855.54758,212.33147Z"
     transform="translate(-66.94711 -37.90015)"
     fill="#2f2e41"
     id="path3208" />
  <ellipse
     cx="913.30532"
     cy="180.57409"
     rx="6.35292"
     ry="8.47057"
     fill="#a0616a"
     id="ellipse3210" />
  <path
     style="fill:#f51b01;fill-opacity:1"
     d="M 801.74023 221.86133 C 801.22142 221.83987 800.76229 221.956 800.36523 222.2207 C 796.12995 225.04422 793.30469 257.51563 793.30469 257.51562 L 779.1875 268.80859 L 695.89453 298.45703 C 695.89453 298.45703 652.12933 328.10234 638.01172 394.45508 C 623.89411 460.80782 614.01172 477.75 614.01172 477.75 C 614.01172 477.75 599.89502 480.57276 609.77734 490.45508 C 619.65966 500.3374 619.66002 498.92718 611.18945 504.57422 C 602.71888 510.22126 597.0717 498.9267 602.71875 510.2207 C 608.3658 521.5147 615.42439 518.69119 609.77734 525.75 C 604.13029 532.80881 594.24748 532.80803 599.89453 538.45508 C 605.54158 544.10213 594.24788 556.80804 601.30664 562.45508 C 608.3654 568.10212 611.18945 569.51416 611.18945 579.39648 A 49.9927 49.9927 0 0 0 614.01172 596.33789 L 687.42383 596.33789 C 687.42383 596.33789 673.30573 569.51424 677.54102 563.86719 C 681.77631 558.22014 683.18871 552.57353 680.36523 549.75 C 677.54175 546.92647 669.07045 552.57248 677.54102 545.51367 C 686.01159 538.45486 688.83524 542.69127 686.01172 534.2207 C 683.1882 525.75013 677.54046 529.98528 683.1875 525.75 C 688.83454 521.51472 693.07157 522.9267 690.24805 518.69141 C 687.42453 514.45612 681.77679 514.45633 687.42383 511.63281 C 693.07087 508.80929 697.30629 511.63108 695.89453 504.57227 C 694.48277 497.51346 693.07101 500.33719 695.89453 497.51367 C 696.63137 496.77684 699.21291 489.62373 702.59961 479.50781 L 702.95312 489.04297 L 715.6582 532.80859 C 715.6582 532.80859 705.77658 566.69043 718.48242 586.45508 C 731.18826 606.21973 711.42383 613.2793 711.42383 613.2793 C 711.42383 613.2793 707.1882 618.92532 710.01172 633.04297 C 712.83524 647.16062 707.1875 699.39648 707.1875 699.39648 C 707.1875 699.39648 827.18726 753.04319 952.83398 706.45508 L 938.7168 652.80859 L 931.6582 532.80859 C 931.6582 532.80859 931.94693 531.9385 932.05273 531.63281 L 940.12891 633.04297 L 1000.834 624.57227 C 1000.834 624.57227 1000.8347 610.45563 1003.6582 604.80859 C 1006.4817 599.16155 996.60016 594.92585 990.95312 579.39648 C 985.30609 563.86711 990.95222 566.69036 995.1875 562.45508 C 999.42278 558.2198 993.77664 553.98563 990.95312 551.16211 C 988.12961 548.33859 988.12959 541.27861 990.95312 538.45508 C 993.77666 535.63155 990.95239 532.80755 988.12891 528.57227 C 985.30543 524.33699 988.12959 524.33845 990.95312 518.69141 C 993.77666 513.04437 979.6582 491.86719 979.6582 491.86719 L 979.6582 377.51562 C 979.6582 377.51562 972.59836 318.22144 935.89258 305.51562 C 899.1868 292.80981 893.54102 280.10352 893.54102 280.10352 C 893.54102 280.10352 910.48263 261.75056 903.42383 256.10352 C 903.42383 256.10352 899.18701 253.28069 889.30469 258.92773 C 879.42237 264.57477 846.9532 267.39816 831.42383 250.45703 C 817.35034 235.10413 806.75541 222.06873 801.74023 221.86133 z "
     id="path3184" />
</svg>
