<?xml version="1.0" encoding="UTF-8" standalone="no"?>
<svg
   xmlns:dc="http://purl.org/dc/elements/1.1/"
   xmlns:cc="http://creativecommons.org/ns#"
   xmlns:rdf="http://www.w3.org/1999/02/22-rdf-syntax-ns#"
   xmlns:svg="http://www.w3.org/2000/svg"
   xmlns="http://www.w3.org/2000/svg"
   xmlns:sodipodi="http://sodipodi.sourceforge.net/DTD/sodipodi-0.dtd"
   xmlns:inkscape="http://www.inkscape.org/namespaces/inkscape"
   id="e7b3b0c3-1e4f-480c-906c-c03021e90d10"
   data-name="Layer 1"
   width="991.13988"
   height="770.17774"
   viewBox="0 0 991.13988 770.17774"
   version="1.1"
   sodipodi:docname="undraw_professor_8lrt.svg"
   inkscape:version="0.92.4 (5da689c313, 2019-01-14)">
  <metadata
     id="metadata103">
    <rdf:RDF>
      <cc:Work
         rdf:about="">
        <dc:format>image/svg+xml</dc:format>
        <dc:type
           rdf:resource="http://purl.org/dc/dcmitype/StillImage" />
      </cc:Work>
    </rdf:RDF>
  </metadata>
  <defs
     id="defs101" />
  <sodipodi:namedview
     pagecolor="#ffffff"
     bordercolor="#666666"
     borderopacity="1"
     objecttolerance="10"
     gridtolerance="10"
     guidetolerance="10"
     inkscape:pageopacity="0"
     inkscape:pageshadow="2"
     inkscape:window-width="1920"
     inkscape:window-height="1017"
     id="namedview99"
     showgrid="false"
     inkscape:zoom="1.2256911"
     inkscape:cx="531.17335"
     inkscape:cy="417.72352"
     inkscape:window-x="-8"
     inkscape:window-y="-8"
     inkscape:window-maximized="1"
     inkscape:current-layer="e7b3b0c3-1e4f-480c-906c-c03021e90d10" />
  <title
     id="title2">professor</title>
  <path
     d="M394.01076,64.91113,236.15757,150.41336a40.156,40.156,0,1,1-70.5866,38.23373l-53.82344,29.15382L251.16683,475.1951,533.43006,322.30535Z"
     transform="translate(-104.43006 -64.91113)"
     fill="#f2f2f2"
     id="path4" />
  <path
     d="M790.38464,753.97532l170.67214-55.67116a40.156,40.156,0,1,1,76.31882-24.89429l58.19434-18.98228-90.777-278.29668L699.60765,475.6786Z"
     transform="translate(-104.43006 -64.91113)"
     fill="#f2f2f2"
     id="path8" />
  <rect
     x="115.5"
     y="152.67774"
     width="788"
     height="358"
     fill="#3f3d56"
     id="rect12" />
  <rect
     x="128.5"
     y="165.67774"
     width="762"
     height="325"
     fill="#fff"
     id="rect14" />
  <rect
     x="739"
     y="475.17774"
     width="74"
     height="25"
     fill="#3f3d56"
     id="rect16" />
  <polyline
     points="190.5 288.678 481.5 288.678 526.616 310.657 598.5 345.678 645.5 257.678 778.5 257.678"
     fill="none"
     stroke="#3f3d56"
     stroke-miterlimit="10"
     stroke-width="2"
     id="polyline20" />
  <polyline
     points="304.925 288.678 326.5 339.678 379.5 339.678"
     fill="none"
     stroke="#3f3d56"
     stroke-miterlimit="10"
     stroke-width="2"
     id="polyline22" />
  <polyline
     points="385.807 288.678 459.5 248.678 511.5 248.678"
     fill="none"
     stroke="#3f3d56"
     stroke-miterlimit="10"
     stroke-width="2"
     id="polyline24" />
  <polyline
     points="526.5 310.678 532.5 399.678 584.5 399.678"
     fill="none"
     stroke="#3f3d56"
     stroke-miterlimit="10"
     stroke-width="2"
     id="polyline30" />
  <polyline
     points="626.65 292.971 569.5 248.678 623.5 248.678"
     fill="none"
     stroke="#3f3d56"
     stroke-miterlimit="10"
     stroke-width="2"
     id="polyline32" />
  <polyline
     points="721.051 257.678 776.5 301.678 828.5 301.678"
     fill="none"
     stroke="#3f3d56"
     stroke-miterlimit="10"
     stroke-width="2"
     id="polyline34" />
  <line
     x1="327.5"
     y1="347.67774"
     x2="379.5"
     y2="347.67774"
     fill="none"
     stroke="#3f3d56"
     stroke-miterlimit="10"
     stroke-width="2"
     id="line42" />
  <path
     d="M615.93006,322.58887h0Z"
     transform="translate(-104.43006 -64.91113)"
     fill="none"
     stroke="#3f3d56"
     stroke-miterlimit="10"
     stroke-width="2"
     id="path44" />
  <path
     d="M727.93006,321.58887h0Z"
     transform="translate(-104.43006 -64.91113)"
     fill="none"
     stroke="#3f3d56"
     stroke-miterlimit="10"
     stroke-width="2"
     id="path46" />
  <path
     d="M727.93006,329.58887h0Z"
     transform="translate(-104.43006 -64.91113)"
     fill="none"
     stroke="#3f3d56"
     stroke-miterlimit="10"
     stroke-width="2"
     id="path48" />
  <path
     d="M932.93006,374.58887h0Z"
     transform="translate(-104.43006 -64.91113)"
     fill="none"
     stroke="#3f3d56"
     stroke-miterlimit="10"
     stroke-width="2"
     id="path50" />
  <path
     d="M913.93006,382.58887h0Z"
     transform="translate(-104.43006 -64.91113)"
     fill="none"
     stroke="#3f3d56"
     stroke-miterlimit="10"
     stroke-width="2"
     id="path52" />
  <path
     d="M688.93006,472.58887h0Z"
     transform="translate(-104.43006 -64.91113)"
     fill="none"
     stroke="#3f3d56"
     stroke-miterlimit="10"
     stroke-width="2"
     id="path54" />
  <circle
     cx="809.54207"
     cy="75.52974"
     r="14.75556"
     fill="none"
     stroke="#3f3d56"
     stroke-miterlimit="10"
     stroke-width="2"
     id="circle56" />
  <ellipse
     cx="152"
     cy="742.17774"
     rx="152"
     ry="28"
     fill="#f2f2f2"
     id="ellipse58" />
  <path
     d="M356.41026,533.12245l-1.21823,7.3094s1.82735,50.55672-11.57323,34.71968-4.26382-37.15614-4.26382-37.15614l3.65471-6.09117Z"
     transform="translate(-104.43006 -64.91113)"
     fill="#fbbebe"
     id="path62" />
  <path
     d="M278.44328,299.22149s-2.43647,25.58291-3.65471,26.80115,18.27352,24.36468,18.27352,24.36468l17.05527-15.837s-1.21823-23.14645,2.43647-28.01939S278.44328,299.22149,278.44328,299.22149Z"
     transform="translate(-104.43006 -64.91113)"
     fill="#fbbebe"
     id="path64" />
  <path
     d="M278.44328,299.22149s-2.43647,25.58291-3.65471,26.80115,18.27352,24.36468,18.27352,24.36468l17.05527-15.837s-1.21823-23.14645,2.43647-28.01939S278.44328,299.22149,278.44328,299.22149Z"
     transform="translate(-104.43006 -64.91113)"
     opacity="0.1"
     id="path66" />
  <polygon
     points="128.939 700.894 128.939 722.822 120.411 724.041 108.229 720.386 111.883 697.239 128.939 700.894"
     fill="#3f3d56"
     id="polygon68" />
  <path
     d="M222.4045,776.76929s-3.6547-9.74588-9.74587-8.52764-7.30941,8.52764-7.30941,8.52764-4.87293,18.27351-12.18234,24.36468-14.61881,21.92822,0,24.36468,26.80115-3.6547,26.80115-4.87293,3.65471-8.52764,9.74588-9.74588,10.96411-2.43646,10.96411-7.3094-3.65471-9.74587-3.65471-9.74587-1.21823-23.10808-3.6547-20.08168a24.23422,24.23422,0,0,0-3.6547,7.89933Z"
     transform="translate(-104.43006 -64.91113)"
     fill="#2f2e41"
     id="path70" />
  <polygon
     points="181.323 689.93 176.45 708.203 188.632 710.64 194.723 704.549 195.941 688.712 181.323 689.93"
     fill="#3f3d56"
     id="polygon72" />
  <path
     d="M284.53445,770.67812s4.87293-3.65471,7.3094-3.65471h3.6547s0-8.52764,6.09118-8.52764,4.87293,6.09117,4.87293,6.09117,13.40058,20.71,17.05528,24.36469,23.14645,14.61881,7.30941,19.49175-26.80116,4.87293-34.11056-3.65471c0,0-7.30941-3.6547-12.18234-3.6547s-10.96411-2.43647-10.96411-6.09117,3.6547-10.96411,3.6547-10.96411,2.43647-21.92821,3.6547-19.49175S284.53445,770.67812,284.53445,770.67812Z"
     transform="translate(-104.43006 -64.91113)"
     fill="#2f2e41"
     id="path74" />
  <path
     d="M232.15038,474.64721v40.20173s-13.40058,77.967-13.40058,103.5499-20.71,147.40634-10.96411,149.84281,32.89233,6.09117,34.11056,2.43647,9.74587-119.387,10.96411-120.60519,26.80115-97.45873,26.80115-97.45873l4.87294,1.21823,2.43646,109.64108s-12.18234,98.677-6.09117,98.677,31.67409-1.21824,31.67409-8.52764,13.40058-142.5334,13.40058-142.5334,15.837-107.20461,9.74587-118.16872-6.09117-17.05528-6.09117-17.05528Z"
     transform="translate(-104.43006 -64.91113)"
     fill="#2f2e41"
     id="path76" />
  <circle
     cx="194.11408"
     cy="228.8283"
     r="24.36468"
     fill="#fbbebe"
     id="circle78" />
  <path
     id="path80"
     style="fill:#f51b01;fill-opacity:1"
     d="m 172.18555,253.19336 c 0,0 -7.91797,7.91849 -7.91797,9.13672 0,1.21823 -34.11104,4.87327 -42.63867,14.61914 -8.52763,9.74587 -15.83594,30.45508 -15.83594,30.45508 0,0 -21.928492,65.78547 -14.619142,80.40429 7.30935,14.61882 21.927852,51.16551 26.800782,49.94727 4.87293,-1.21824 21.92773,-12.18216 21.92773,-13.40039 0,-0.28442 -1.19514,-2.46679 -2.92578,-5.48438 9.47163,3.41847 22.6329,6.89223 34.59961,5.48438 20.70998,-2.43647 41.42059,-6.0918 47.51172,-6.0918 6.09113,0 10.96484,2.43647 10.96484,0 0,-2.43647 -3.65625,-7.30962 -3.65625,-9.74609 0,-2.43647 -1.21679,-8.52694 -1.21679,-12.18164 0,-3.6547 -2.4375,-9.7462 -2.4375,-14.61914 0,-0.32049 0.12909,-0.93274 0.3457,-1.74414 l 5.74609,7.83593 6.0918,53.60157 c 0,0 -2.4375,23.14608 -2.4375,26.80078 0,3.6547 21.92928,2.4375 25.58399,2.4375 3.65471,0 -1.21875,-18.27344 -1.21875,-18.27344 0,0 2.43657,-19.49325 4.87304,-45.07617 2.43647,-25.58292 -12.18359,-96.24024 -12.18359,-96.24024 0,0 -1.21723,-20.70921 -20.70899,-30.45507 -19.49176,-9.74586 -21.92773,-13.4004 -21.92773,-13.4004 0,0 -0.37986,-7.31054 -1.4082,-7.31054 -1.02834,0 -4.68377,10.96535 -14.42969,12.18359 l -2.43555,-1.21875 c 0,0 -15.22902,-12.79113 -16.44726,-17.66406 z m -45.5,96.58594 c 0.26457,4.80921 1.03515,18.90278 1.03515,20.97265 0,1.42782 -2.07089,15.34946 -3.3125,26.92383 -2.87826,-4.78043 -5.21484,-8.65039 -5.21484,-8.65039 0,0 -2.43698,-7.30911 -1.21875,-8.52734 1.21823,-1.21823 1.21824,9.2e-4 0,-2.43555 -1.21824,-2.43647 -1.21772,-0.001 1.21875,-2.4375 2.43647,-2.43647 2.43555,-2.43607 2.43555,-3.6543 0,-0.8427 2.90032,-13.12665 5.05664,-22.1914 z M 256.389,493.658 l -27.117,13.681 1.755,3.495 27.116,-13.681 z M 635.5,292.67773 a 9,9 0 0 1 -9,9 9,9 0 0 1 -9,-9 9,9 0 0 1 9,-9 9,9 0 0 1 9,9 z m 94,-35 a 9,9 0 0 1 -9,9 9,9 0 0 1 -9,-9 9,9 0 0 1 9,-9 9,9 0 0 1 9,9 z m -194,53 a 9,9 0 0 1 -9,9 9,9 0 0 1 -9,-9 9,9 0 0 1 9,-9 9,9 0 0 1 9,9 z m -138,-22 a 9,9 0 0 1 -9,9 9,9 0 0 1 -9,-9 9,9 0 0 1 9,-9 9,9 0 0 1 9,9 z m -84,0 a 9,9 0 0 1 -9,9 9,9 0 0 1 -9,-9 9,9 0 0 1 9,-9 9,9 0 0 1 9,9 z m 367.5,205.5 h 54 v 7 h -54 z m 248.36303,126.06623 a 32.587399,32.587399 0 0 1 -32.5874,32.5874 32.587399,32.587399 0 0 1 -32.58739,-32.5874 32.587399,32.587399 0 0 1 32.58739,-32.5874 32.587399,32.587399 0 0 1 32.5874,32.5874 z M 127.19105,105.66791 a 32.587399,32.587399 0 0 1 -32.587397,32.5874 32.587399,32.587399 0 0 1 -32.587399,-32.5874 32.587399,32.587399 0 0 1 32.587399,-32.587401 32.587399,32.587399 0 0 1 32.587397,32.587401 z" />
  <polygon
     points="122.847 432.883 131.375 446.283 153.303 441.41 137.466 423.137 122.847 432.883"
     fill="#fbbebe"
     id="polygon82" />
  <path
     d="M281.99544,281.91075c1.4935-.633,3.22007-.1195,4.81953-.38952,1.87824-.31708,3.55879-1.70862,5.45549-1.533a10.48375,10.48375,0,0,1,2.5973.84328,3.39062,3.39062,0,0,0,2.66075.09529,1.51214,1.51214,0,0,0,.57862-2.27113,7.52045,7.52045,0,0,0,4.32739-1.86276,3.22984,3.22984,0,0,1,.82584-.61957,2.69555,2.69555,0,0,1,2.12237.33059l2.78767,1.285a3.52582,3.52582,0,0,1,1.593,1.13954c.33158.517.39648,1.21219.86613,1.60806.59923.50509,1.495.25792,2.27711.30743a2.91242,2.91242,0,0,1,2.62978,2.83983c-.01108.81805-.30863,1.82167.33839,2.32234.37528.29039.90808.24392,1.34773.42241,1.13946.4626,1.1439,2.04883.97555,3.267s-.08506,2.82525,1.08613,3.20033c.82465.2641,1.66742-.29891,2.52418-.42448,1.29251-.18944,2.48848.619,3.63908,1.23756s2.67915,1.03581,3.67643.19207c.928-.78513.86846-2.2215.61327-3.41a18.78968,18.78968,0,0,0-1.78747-4.88693,3.102,3.102,0,0,1-.51817-1.52085,2.75375,2.75375,0,0,1,1.27792-1.86007c1.40979-1.11453,3.03151-2.23658,3.4879-3.97479.335-1.27571-.04182-2.62112-.01273-3.93975.03541-1.60454.6734-3.20218.3742-4.779-.54233-2.85815-3.72326-4.23367-5.77661-6.29447-2.82154-2.83179-3.7376-7.36107-7.06749-9.57284-2.6639-1.76941-6.14831-1.55819-9.18183-2.57056-3.33241-1.11211-6.01486-3.6671-9.302-4.90659a12.96261,12.96261,0,0,0-11.01889.96648,11.02841,11.02841,0,0,1-3.23948,1.65513,11.64687,11.64687,0,0,1-2.94852-.0342,11.3814,11.3814,0,0,0-5.6235,1.16027,3.14415,3.14415,0,0,0-1.57539,1.38165c-.58852,1.30709.26647,3.35047-1.02358,3.97545-.60147.29139-1.31155.01224-1.97973.02691-1.29933.02853-2.29894,1.15915-2.91719,2.30232a11.03264,11.03264,0,0,1-2.04409,3.28973c-1.58825,1.391-4.47379,1.62087-4.88876,3.69094a20.12443,20.12443,0,0,0,.149,2.62234c-.12,1.8345-2.08321,3.2287-1.98075,5.06426.11819,2.11725,2.80817,3.15168,3.52724,5.14658.54753,1.519-.173,3.1614-.66878,4.698s-.6453,3.50622.63511,4.4899c.50206.38571,1.14756.54384,1.65956.91623,1.32492.96364,1.30819,2.90835,1.16106,4.54a2.13535,2.13535,0,0,0,.48137,1.944,1.79886,1.79886,0,0,0,1.47242.17681,6.00977,6.00977,0,0,0,3.8037-2.86237c.42668-.70547.51243-1.32725,1.28754-1.70157.52595-.254,1.16463-.02729,1.7-.35691C279.74623,287.70916,278.86947,283.2356,281.99544,281.91075Z"
     transform="translate(-104.43006 -64.91113)"
     fill="#2f2e41"
     id="path86" />
  <polygon
     points="128.329 446.892 155.131 438.365 158.785 446.892 129.548 452.983 128.329 446.892"
     fill="#2f2e41"
     id="polygon90" />
  <polygon
     points="128.329 446.892 155.131 438.365 158.785 446.892 129.548 452.983 128.329 446.892"
     opacity="0.1"
     id="polygon92" />
  <polygon
     points="164.876 262.939 185.586 279.994 188.023 276.339 164.876 262.939"
     opacity="0.1"
     id="polygon94" />
  <polygon
     points="206.296 267.812 191.678 276.339 192.896 279.994 206.296 267.812"
     opacity="0.1"
     id="polygon96" />
</svg>
